<mxfile host="app.diagrams.net" agent="Mozilla/5.0 (Windows NT 10.0; Win64; x64) AppleWebKit/537.36 (KHTML, like Gecko) Chrome/131.0.0.0 Safari/537.36" version="26.0.4">
  <diagram name="Page-1" id="SDOzWbV70_7biV7m2FC6">
    <mxGraphModel dx="1050" dy="557" grid="1" gridSize="10" guides="1" tooltips="1" connect="1" arrows="1" fold="1" page="1" pageScale="1" pageWidth="850" pageHeight="1100" math="0" shadow="0">
      <root>
        <mxCell id="0" />
        <mxCell id="1" parent="0" />
        <mxCell id="aVytLB4ivRo-0Gfj-eNB-1" value="" style="image;sketch=0;aspect=fixed;html=1;points=[];align=center;fontSize=12;image=img/lib/mscae/Docker.svg;" parent="1" vertex="1">
          <mxGeometry x="593.99" y="75" width="60.98" height="50" as="geometry" />
        </mxCell>
        <mxCell id="aVytLB4ivRo-0Gfj-eNB-2" value="" style="shape=mxgraph.cisco.computers_and_peripherals.pc;html=1;pointerEvents=1;dashed=0;fillColor=#036897;strokeColor=#ffffff;strokeWidth=2;verticalLabelPosition=bottom;verticalAlign=top;align=center;outlineConnect=0;" parent="1" vertex="1">
          <mxGeometry x="200" y="50" width="70" height="50" as="geometry" />
        </mxCell>
        <mxCell id="aVytLB4ivRo-0Gfj-eNB-4" value="0.0.0.0:5000" style="text;html=1;align=center;verticalAlign=middle;whiteSpace=wrap;rounded=0;" parent="1" vertex="1">
          <mxGeometry x="559.48" y="45" width="130" height="30" as="geometry" />
        </mxCell>
        <mxCell id="aVytLB4ivRo-0Gfj-eNB-5" value="localhost:8080" style="text;html=1;align=center;verticalAlign=middle;whiteSpace=wrap;rounded=0;" parent="1" vertex="1">
          <mxGeometry x="170" y="20" width="130" height="30" as="geometry" />
        </mxCell>
        <mxCell id="aVytLB4ivRo-0Gfj-eNB-8" style="edgeStyle=orthogonalEdgeStyle;rounded=0;orthogonalLoop=1;jettySize=auto;html=1;" parent="1" source="aVytLB4ivRo-0Gfj-eNB-6" target="aVytLB4ivRo-0Gfj-eNB-2" edge="1">
          <mxGeometry relative="1" as="geometry" />
        </mxCell>
        <mxCell id="aVytLB4ivRo-0Gfj-eNB-6" value="" style="shape=image;verticalLabelPosition=bottom;labelBackgroundColor=default;verticalAlign=top;aspect=fixed;imageAspect=0;image=https://gitlab.com/uploads/-/system/project/avatar/22180576/dockerhub.png;" parent="1" vertex="1">
          <mxGeometry x="216.16999999999996" y="150" width="37.65" height="30" as="geometry" />
        </mxCell>
        <mxCell id="aVytLB4ivRo-0Gfj-eNB-7" value="mrxmoon/flask-app:latest" style="text;html=1;align=center;verticalAlign=middle;whiteSpace=wrap;rounded=0;" parent="1" vertex="1">
          <mxGeometry x="160" y="180" width="170" height="30" as="geometry" />
        </mxCell>
        <mxCell id="aVytLB4ivRo-0Gfj-eNB-9" value="pull" style="text;html=1;align=center;verticalAlign=middle;whiteSpace=wrap;rounded=0;" parent="1" vertex="1">
          <mxGeometry x="190" y="120" width="46.17" height="30" as="geometry" />
        </mxCell>
        <mxCell id="aVytLB4ivRo-0Gfj-eNB-12" value="bridge" style="ellipse;shape=cloud;whiteSpace=wrap;html=1;" parent="1" vertex="1">
          <mxGeometry x="424.48" y="65.5" width="110" height="70" as="geometry" />
        </mxCell>
        <mxCell id="aVytLB4ivRo-0Gfj-eNB-13" value="172.17.0.2" style="text;html=1;align=center;verticalAlign=middle;whiteSpace=wrap;rounded=0;" parent="1" vertex="1">
          <mxGeometry x="494.48" y="123" width="130" height="30" as="geometry" />
        </mxCell>
        <mxCell id="aVytLB4ivRo-0Gfj-eNB-14" value="172.17.0.1" style="text;html=1;align=center;verticalAlign=middle;whiteSpace=wrap;rounded=0;" parent="1" vertex="1">
          <mxGeometry x="339.48" y="120.5" width="130" height="30" as="geometry" />
        </mxCell>
        <mxCell id="aVytLB4ivRo-0Gfj-eNB-15" value="eth0" style="rounded=1;whiteSpace=wrap;html=1;" parent="1" vertex="1">
          <mxGeometry x="544.48" y="100.5" width="30" height="20" as="geometry" />
        </mxCell>
        <mxCell id="aVytLB4ivRo-0Gfj-eNB-16" value="vent0" style="rounded=1;whiteSpace=wrap;html=1;" parent="1" vertex="1">
          <mxGeometry x="384.48" y="100.5" width="40" height="20" as="geometry" />
        </mxCell>
        <mxCell id="aVytLB4ivRo-0Gfj-eNB-17" value="NAT" style="rounded=1;whiteSpace=wrap;html=1;" parent="1" vertex="1">
          <mxGeometry x="299.48" y="75" width="40" height="20" as="geometry" />
        </mxCell>
        <mxCell id="aVytLB4ivRo-0Gfj-eNB-18" value="172.17.0.1" style="text;html=1;align=center;verticalAlign=middle;whiteSpace=wrap;rounded=0;" parent="1" vertex="1">
          <mxGeometry x="254.48" y="93" width="130" height="30" as="geometry" />
        </mxCell>
        <mxCell id="aVytLB4ivRo-0Gfj-eNB-19" value="loopback" style="text;html=1;align=center;verticalAlign=middle;whiteSpace=wrap;rounded=0;" parent="1" vertex="1">
          <mxGeometry x="254.48" y="130" width="130" height="30" as="geometry" />
        </mxCell>
        <mxCell id="aVytLB4ivRo-0Gfj-eNB-20" value="" style="sketch=0;html=1;aspect=fixed;strokeColor=none;shadow=0;fillColor=#3B8DF1;verticalAlign=top;labelPosition=center;verticalLabelPosition=bottom;shape=mxgraph.gcp2.arrow_cycle" parent="1" vertex="1">
          <mxGeometry x="308.95" y="120" width="21.05" height="20" as="geometry" />
        </mxCell>
        <mxCell id="Tu3c3Bq3ghXQ32RFPykP-1" value="" style="image;sketch=0;aspect=fixed;html=1;points=[];align=center;fontSize=12;image=img/lib/mscae/Docker.svg;" parent="1" vertex="1">
          <mxGeometry x="643.5" y="475" width="60.98" height="50" as="geometry" />
        </mxCell>
        <mxCell id="Tu3c3Bq3ghXQ32RFPykP-2" value="" style="shape=mxgraph.cisco.computers_and_peripherals.pc;html=1;pointerEvents=1;dashed=0;fillColor=#036897;strokeColor=#ffffff;strokeWidth=2;verticalLabelPosition=bottom;verticalAlign=top;align=center;outlineConnect=0;" parent="1" vertex="1">
          <mxGeometry x="220" y="450" width="70" height="50" as="geometry" />
        </mxCell>
        <mxCell id="Tu3c3Bq3ghXQ32RFPykP-3" value="0.0.0.0:27017" style="text;html=1;align=center;verticalAlign=middle;whiteSpace=wrap;rounded=0;" parent="1" vertex="1">
          <mxGeometry x="608.99" y="445" width="130" height="30" as="geometry" />
        </mxCell>
        <mxCell id="Tu3c3Bq3ghXQ32RFPykP-4" value="localhost:27017" style="text;html=1;align=center;verticalAlign=middle;whiteSpace=wrap;rounded=0;" parent="1" vertex="1">
          <mxGeometry x="190" y="420" width="130" height="30" as="geometry" />
        </mxCell>
        <mxCell id="Tu3c3Bq3ghXQ32RFPykP-5" style="edgeStyle=orthogonalEdgeStyle;rounded=0;orthogonalLoop=1;jettySize=auto;html=1;" parent="1" source="Tu3c3Bq3ghXQ32RFPykP-6" target="Tu3c3Bq3ghXQ32RFPykP-2" edge="1">
          <mxGeometry relative="1" as="geometry" />
        </mxCell>
        <mxCell id="Tu3c3Bq3ghXQ32RFPykP-6" value="" style="shape=image;verticalLabelPosition=bottom;labelBackgroundColor=default;verticalAlign=top;aspect=fixed;imageAspect=0;image=https://gitlab.com/uploads/-/system/project/avatar/22180576/dockerhub.png;" parent="1" vertex="1">
          <mxGeometry x="236.16999999999996" y="550" width="37.65" height="30" as="geometry" />
        </mxCell>
        <mxCell id="Tu3c3Bq3ghXQ32RFPykP-7" value="mongodb:latest" style="text;html=1;align=center;verticalAlign=middle;whiteSpace=wrap;rounded=0;" parent="1" vertex="1">
          <mxGeometry x="180" y="580" width="150" height="30" as="geometry" />
        </mxCell>
        <mxCell id="Tu3c3Bq3ghXQ32RFPykP-8" value="pull" style="text;html=1;align=center;verticalAlign=middle;whiteSpace=wrap;rounded=0;" parent="1" vertex="1">
          <mxGeometry x="210" y="520" width="46.17" height="30" as="geometry" />
        </mxCell>
        <mxCell id="Tu3c3Bq3ghXQ32RFPykP-9" value="chall-02_default" style="ellipse;shape=cloud;whiteSpace=wrap;html=1;" parent="1" vertex="1">
          <mxGeometry x="444.48" y="465.5" width="145.52" height="70" as="geometry" />
        </mxCell>
        <mxCell id="Tu3c3Bq3ghXQ32RFPykP-10" value="172.21.0.2" style="text;html=1;align=center;verticalAlign=middle;whiteSpace=wrap;rounded=0;" parent="1" vertex="1">
          <mxGeometry x="543.99" y="523" width="130" height="30" as="geometry" />
        </mxCell>
        <mxCell id="Tu3c3Bq3ghXQ32RFPykP-11" value="172.21.0.1" style="text;html=1;align=center;verticalAlign=middle;whiteSpace=wrap;rounded=0;" parent="1" vertex="1">
          <mxGeometry x="359.48" y="520.5" width="130" height="30" as="geometry" />
        </mxCell>
        <mxCell id="Tu3c3Bq3ghXQ32RFPykP-12" value="eth0" style="rounded=1;whiteSpace=wrap;html=1;" parent="1" vertex="1">
          <mxGeometry x="593.99" y="500.5" width="30" height="20" as="geometry" />
        </mxCell>
        <mxCell id="Tu3c3Bq3ghXQ32RFPykP-13" value="vent0" style="rounded=1;whiteSpace=wrap;html=1;" parent="1" vertex="1">
          <mxGeometry x="404.48" y="500.5" width="40" height="20" as="geometry" />
        </mxCell>
        <mxCell id="Tu3c3Bq3ghXQ32RFPykP-14" value="NAT" style="rounded=1;whiteSpace=wrap;html=1;" parent="1" vertex="1">
          <mxGeometry x="319.48" y="475" width="40" height="20" as="geometry" />
        </mxCell>
        <mxCell id="Tu3c3Bq3ghXQ32RFPykP-15" value="172.17.0.1" style="text;html=1;align=center;verticalAlign=middle;whiteSpace=wrap;rounded=0;" parent="1" vertex="1">
          <mxGeometry x="274.48" y="493" width="130" height="30" as="geometry" />
        </mxCell>
        <mxCell id="Tu3c3Bq3ghXQ32RFPykP-16" value="loopback" style="text;html=1;align=center;verticalAlign=middle;whiteSpace=wrap;rounded=0;" parent="1" vertex="1">
          <mxGeometry x="274.48" y="530" width="130" height="30" as="geometry" />
        </mxCell>
        <mxCell id="Tu3c3Bq3ghXQ32RFPykP-17" value="" style="sketch=0;html=1;aspect=fixed;strokeColor=none;shadow=0;fillColor=#3B8DF1;verticalAlign=top;labelPosition=center;verticalLabelPosition=bottom;shape=mxgraph.gcp2.arrow_cycle" parent="1" vertex="1">
          <mxGeometry x="328.95" y="520" width="21.05" height="20" as="geometry" />
        </mxCell>
        <mxCell id="Tu3c3Bq3ghXQ32RFPykP-18" value="" style="image;aspect=fixed;html=1;points=[];align=center;fontSize=12;image=img/lib/azure2/general/Folder_Blank.svg;" parent="1" vertex="1">
          <mxGeometry x="262.52" y="330" width="36.96" height="30" as="geometry" />
        </mxCell>
        <mxCell id="Tu3c3Bq3ghXQ32RFPykP-19" value="db" style="text;html=1;align=center;verticalAlign=middle;whiteSpace=wrap;rounded=0;" parent="1" vertex="1">
          <mxGeometry x="200.47000000000003" y="360" width="36.01" height="30" as="geometry" />
        </mxCell>
        <mxCell id="Tu3c3Bq3ghXQ32RFPykP-20" value="" style="image;aspect=fixed;html=1;points=[];align=center;fontSize=12;image=img/lib/azure2/general/Folder_Blank.svg;" parent="1" vertex="1">
          <mxGeometry x="199.99999999999997" y="330" width="36.96" height="30" as="geometry" />
        </mxCell>
        <mxCell id="Tu3c3Bq3ghXQ32RFPykP-21" value="configdb" style="text;html=1;align=center;verticalAlign=middle;whiteSpace=wrap;rounded=0;" parent="1" vertex="1">
          <mxGeometry x="250" y="360" width="60" height="30" as="geometry" />
        </mxCell>
        <mxCell id="Tu3c3Bq3ghXQ32RFPykP-22" value="filesystem:&lt;div&gt;&lt;span style=&quot;white-space: pre;&quot;&gt;&#x9;&lt;/span&gt;/data/db&lt;/div&gt;&lt;div&gt;&lt;span style=&quot;white-space: pre;&quot;&gt;&#x9;&lt;/span&gt;/data/configdb&lt;br&gt;&lt;/div&gt;" style="text;html=1;align=left;verticalAlign=middle;whiteSpace=wrap;rounded=0;" parent="1" vertex="1">
          <mxGeometry x="624.48" y="340" width="121.01" height="50" as="geometry" />
        </mxCell>
        <mxCell id="Tu3c3Bq3ghXQ32RFPykP-23" value="" style="shape=flexArrow;endArrow=classic;startArrow=classic;html=1;rounded=0;width=8;startSize=4.33;startWidth=3;endWidth=3;endSize=4.33;" parent="1" edge="1">
          <mxGeometry width="100" height="100" relative="1" as="geometry">
            <mxPoint x="333" y="371" as="sourcePoint" />
            <mxPoint x="613" y="371" as="targetPoint" />
          </mxGeometry>
        </mxCell>
        <mxCell id="Tu3c3Bq3ghXQ32RFPykP-26" value="Docker Volume" style="text;html=1;align=center;verticalAlign=middle;whiteSpace=wrap;rounded=0;" parent="1" vertex="1">
          <mxGeometry x="449.48" y="330" width="60" height="30" as="geometry" />
        </mxCell>
        <mxCell id="Tu3c3Bq3ghXQ32RFPykP-27" value="/var/lib/docker/volumes/" style="text;html=1;align=center;verticalAlign=middle;whiteSpace=wrap;rounded=0;" parent="1" vertex="1">
          <mxGeometry x="185" y="380" width="140" height="30" as="geometry" />
        </mxCell>
        <mxCell id="OMT6kCB8-b_YwNMrbF4f-3" value="load-balancer:80" style="text;html=1;align=center;verticalAlign=middle;whiteSpace=wrap;rounded=0;" vertex="1" parent="1">
          <mxGeometry x="661.99" y="790" width="130" height="30" as="geometry" />
        </mxCell>
        <mxCell id="OMT6kCB8-b_YwNMrbF4f-4" value="localhost:80" style="text;html=1;align=center;verticalAlign=middle;whiteSpace=wrap;rounded=0;" vertex="1" parent="1">
          <mxGeometry x="124.97" y="805.5" width="130" height="30" as="geometry" />
        </mxCell>
        <mxCell id="OMT6kCB8-b_YwNMrbF4f-9" value="flask-mongo&lt;div&gt;network&lt;/div&gt;" style="ellipse;shape=cloud;whiteSpace=wrap;html=1;" vertex="1" parent="1">
          <mxGeometry x="379.97" y="807.6" width="145.52" height="70" as="geometry" />
        </mxCell>
        <mxCell id="OMT6kCB8-b_YwNMrbF4f-10" value="172.19.0.1" style="text;html=1;align=center;verticalAlign=middle;whiteSpace=wrap;rounded=0;" vertex="1" parent="1">
          <mxGeometry x="478.99" y="863" width="130" height="30" as="geometry" />
        </mxCell>
        <mxCell id="OMT6kCB8-b_YwNMrbF4f-11" value="172.19.0.1" style="text;html=1;align=center;verticalAlign=middle;whiteSpace=wrap;rounded=0;" vertex="1" parent="1">
          <mxGeometry x="294.97" y="860.5" width="130" height="30" as="geometry" />
        </mxCell>
        <mxCell id="OMT6kCB8-b_YwNMrbF4f-12" value="eth0" style="rounded=1;whiteSpace=wrap;html=1;" vertex="1" parent="1">
          <mxGeometry x="529.48" y="842.6" width="30" height="20" as="geometry" />
        </mxCell>
        <mxCell id="OMT6kCB8-b_YwNMrbF4f-13" value="vent0" style="rounded=1;whiteSpace=wrap;html=1;" vertex="1" parent="1">
          <mxGeometry x="339.97" y="842.6" width="40" height="20" as="geometry" />
        </mxCell>
        <mxCell id="OMT6kCB8-b_YwNMrbF4f-14" value="NAT" style="rounded=1;whiteSpace=wrap;html=1;" vertex="1" parent="1">
          <mxGeometry x="254.97000000000003" y="815" width="40" height="20" as="geometry" />
        </mxCell>
        <mxCell id="OMT6kCB8-b_YwNMrbF4f-15" value="172.19.0.1" style="text;html=1;align=center;verticalAlign=middle;whiteSpace=wrap;rounded=0;" vertex="1" parent="1">
          <mxGeometry x="209.97000000000003" y="833" width="130" height="30" as="geometry" />
        </mxCell>
        <mxCell id="OMT6kCB8-b_YwNMrbF4f-16" value="loopback" style="text;html=1;align=center;verticalAlign=middle;whiteSpace=wrap;rounded=0;" vertex="1" parent="1">
          <mxGeometry x="209.97000000000003" y="876" width="130" height="30" as="geometry" />
        </mxCell>
        <mxCell id="OMT6kCB8-b_YwNMrbF4f-17" value="" style="sketch=0;html=1;aspect=fixed;strokeColor=none;shadow=0;fillColor=#3B8DF1;verticalAlign=top;labelPosition=center;verticalLabelPosition=bottom;shape=mxgraph.gcp2.arrow_cycle" vertex="1" parent="1">
          <mxGeometry x="264.44" y="860" width="21.05" height="20" as="geometry" />
        </mxCell>
        <mxCell id="OMT6kCB8-b_YwNMrbF4f-26" value="" style="shape=image;verticalLabelPosition=bottom;labelBackgroundColor=default;verticalAlign=top;aspect=fixed;imageAspect=0;image=data:image/png,iVBORw0KGgoAAAANSUhEUgAACgAAAAIaCAYAAADs9hRCAAAABGdBTUEAALGPC/xhBQAAACBjSFJNAAB6JgAAgIQAAPoAAACA6AAAdTAAAOpgAAA6mAAAF3CculE8AAAABmJLR0QA/wD/AP+gvaeTAAAAB3RJTUUH6AcQCRAiRInQ+gAAgABJREFUeNrs3XeYXHXBt/H7zO4mIaEkoSNNkSaKBSxYQDqCCghGEUHa7mwSDEqRImXpBEIxkOzObkIQKwtYKEoPgu21PRYUe0EloELoIWXnvH9MlhBI2TLzO+3+XJfv9byUkP3Oyc6ZnXvOicib2axFlXVYzIiX/toonmVNnmYCi5AkKQkV1gHWoY/ml/5alaf5H0/TwRIHkiRJkpRK0xnJaDYiZj1gNDEjX/p7MX2UeAJ4kgX8lyksdDBJkiRJkiQprChzv+NZjGcxO1JiR2AbYrYgYgtgY2A8UFrFv70AeIKIfxDzD+DvRPwG+A2P8gcDDEnSkHWyAU3sSJUdKbE1sDnxcs9Pq/I88D9iHiHi78T8jYiH6OPXrMefmUCfA0s5UuEg4AMOIamwYu6nna85hJQy1zOGBbyRiB2J2RHYEXgDsN4Af4U+4O/A74l5mIg/EPE7WvgFR/OiAytVx/pzSz88voQ+pvCMo0iSEjebtVi49MPjMYuZzHOOolTrpYlnWIdFjKWJsZRe1h1UeR54GniaMi84liQpqAot1C7MszYtjFvu78U8S8TTNPN03n5elf4AcCavo8TulNiVmPcBr23Qf+lF4GfA94h4kJgHPSGRJK1UD9tT5f1EvI+YXYHXNOi/9Dwx/4+IB4AHWMgPvaqGlGG1N9b/DGzkGJIK7Ema2ZJjedYppAR1UGITdiJmfyL2J2ZnVv3B2qF6gZgHKXEPVe6mzK+JiH0A1BAVRhOxA1V2JOL1wOZEbEHMRsA4YG142ZX5a2LgqaX/+w/wyNL//QWWfni8zNOOK0kastmsxeKlH7SArYDNl/5vw6XPT+us4DysD3gGmA889ornp1+xhN8aCSrAa4ZmXsPW9LEjETsSsQ21ix9szsB/vvkCtQ8KPQL87aXzK8+xJEnDe/3fQontiXkTMTsSszXRS+dY6w/wV3kGeISYv1Na+hwV82vW4CGO5PmsTRKl9IF6J3AQ8GFqnzROwgLgHuAW4FuU+Z9/giSp0C90S2zC+4g5cOnz01YJ/U6eJeJO4BZibvEFspS5FyRnAec5hCRxKmUudQYpgdc1G7EfEROoXZF4gwR+F48T8U36mMNEfuKDomHpYVP6ln44D94HbAM0NeC/9FfgB8ADRDxAG390fEnSSs3kdTSzK1V2I+I9wOup/3uyVeDPwPeBB6jyPSbyd8fXsPTSxBO8i4jdl55fvRtYs0H/tSrw25fOr0rcw3E86YMgSVrJc9QInua99LEbEbsB7wDWaNB/rQ/4JSy9QE8z92bhw+zpCQArbA4cARxJ7Qc1abII+A7wReB2yiz2T5ckFUQXW1PiSGKOpPaJgTRZQMS3qHI947nbWwVLKVdhPWqf0l7bMSSJ/7GE13rFCimQHjakj6OIKNO4u2sMxcPEfJGYOUzkPz5QGuDr9J0pcSAxHwLenNDv4i/ALVS5hXV50NfjklRwHZTYkF0o8WFqHx7fLqHfye9Y9sHxH3vVZQ3IdEYyggOWnl/tD6yX0O9kCRHfp8qt9HEjk/mnD44kFVztrlr9F+fZj9pVk5OwkJj7KXELETfTyuNpnCv5ALCHnahyAnAYr779Qho9DnQB13hVQEnKsQrvJeZUIg4grVfMXd7fiKlQpZtJzPcBlFKoi6uIOMEhJOkln6XMVc4gNVAP7yLmpKVXMm9J8e90EdBLHxcwiT/4wOlVOnkNTRxKzDHAjin73T0K3ETEHNr4pQ+WJBVIhc2JOYyINuB1Kfvd/ZOIr1JiFsfxZx8sreD4fSfwKeDj1G5FnSZVYC4RXyTmZsq84AMmSQURE9HFbpQ4CjiExl2JdqiWEHMH8EXGcwsTWJSW31hyQUOFA4BzgLdn9LBbQMQsYi6mzDz/FEpSDtRuh/VRIs4CdsjoV/EMMJPFTON4nvBBlVJiFlvQxx+AkY4hSS95jOd5HSeywCmkOutmB2LOAQ4lGx9o6lcFbgbOpszvfSBFhfcCU4CP0Jhb+9bbz4mZzmN8lQ6W+ABKUg7FRPSwJ1VOyMyHxyN+QJWplLnNqwIWXC9NPMn+RJxG7fa+WfA08EWWMM2rAkpSjtWuSPsxIk4G3pSR33WqLiAX/qS0iz2BC4h4V04OwwXUQouLDS0kKcO6OJCI8zN0QrE6zwBX0szlHMuzPsBSwipcDxzhEJL0KsdTZoYzSHUyk21p4lzgo0Apw19JHzFfp4mzaOVvPrAFUwsrDiLmLOCtGf0q/kLEVGKuo8xiH1RJyoFemniKTxBzBsnd4ne4fkvMhTzGDXRQ9UEt1PE7gvkcC5wObJbRr2Ix8CWqnM9E/u6DKkk5UWE0cDxwMrB+Rr+KBcR008clTOaxpH4T4QLAHjalykXk943P+UScy1iuYQJ9/imVpIzoZhtivgDsl9OvcB7QwTxm+UMdKbEXL28Cfkm234SXpEb5J+N4fZpulSBl0hWswRjOBT4LNOfoK3sBOBe40oiqILrYf+mH896Wk6/oL8Scx2N82dfkkpRRtTD9o8R0ANvn5Kt6iJhzKPNNrwiYc7W7Hn2KiLOBLXPyVS0CZrOE85KMLCRJw1ShBZgInAFsmJOv6gXgGvq4hEnMD/0fjwI9aKdR+0TBGgU4TH9FRCtt/NQ/sZKUYlewBqM5j4gTgJbcf70RPyCilVYe9sGXAuvmdmL2dwhJWul5Shtt9DiENES1W6T2kN0r0QzEb4gp086PfMBzqoutKXFVjs+b/48qn2YiP/DBlqQM6eStlJgOvDenX+EDlPg0rfzaBzuX51c7A1fn6K58r/Q8MI2FXMwUFvqAS1KG9LAHVaYDO+T0K3ySiPNCX0CusQFgNzsQcx2wc8EO1yVEXM6LnOMJhySlUIV3AteR7zfIVuRFYjoYzzSvVisFexHzPqo84BCStEr/ALb26l7SoF/XrANcCrQS8i4fyakS00XEKZR5wQMgJ2pXr+wAPgOMyPlXGwPXs5iTOJ4nfPAlKcWmszajmEpMG/m/o8MSIjpZzBlM5jkf/Ny8TrgCOLogrxMeJuI42vihD74kpVwPG1JlBnBIQb7inwLHUuY3If5jjXnSj4no5gTgEmBkgQ/fXxExgTb+6J9kSUqBXpp4krOJ+DzQVOAlvk+Jw2jlXx4UUoNV+AHwboeQpNU6ijJfdAZpgLp5CzE3A68r4Ff/MBEfpY3feiBk/ly5qB/Oe5yIibTxTQ8CSUrledZexMwGNi/YV/53ShxLK/d5EGT6/GofYBawWcG+8pjaVdE/64eFJCm1z1EfBWYC6xXsK19MxBXEnNXoD8DXPwCczVosZhYREzyCAXiWmFbaucEpJCnRk4r1gK8A+zgGAP8j5gjaucMppAbp4iNE3OwQkjQgf2Ye29PBEqeQVnuO8UkiKsDoAq/wHBGttPF1D4gM6qWJ+ZwDnEGxP5x3LfBp36SWpJSYzkhGMg2YTDGumrYiVSKuIuY0r9CeufOrETzFNGKOL/DxC/BbSnyUVh72oJCklJjBmjRTAT5R6B1ifkzExyjzSKP+E/U9AehmG2JuA7b2KH7VgzmNxziVDqqOIUmB9bATVb4NvMYxllMFPk+ZS5xCqrPam5q/Bt7gGJI0YIdT5qvOIK3EdEYyiquIaXeMl8xgHCcygUVOkRHXsj6L+TJ+OK/f74k41CtaSlLiZxSb0UQvEe9yDAB+RpWPMpG/O0VGjt9mbgB2cQwAFhBxPG1c6xSSlLAK2wE3Am90DACeIOII2vhuI37x+gWA3bybmG8B6/uYrUTMN4n4pJ/qlKSAutiPiF5gLcdYqTlA2U91SnV9UXMctdtOSJIG7mHm8UY/OCetwDWsSwu34pt6K3IvzRzMsTzrFCnXyTso8U1gE8dYzrNLr9D/baeQpAR0sTcRNwDjHGM5/1saqX/PKVKsm92IuRlY1zFe5SrGcTIT6HMKSUpAhYOALwNjHGM5VeAsylxU71+4VKeTiwnE3Ifx36pFHAzcxzWehElSoBOLiUTchvHf6hwN3Mb1noBJdTGHUcDZDiFJg7Y9G/ERZ5BeYQYb0cJ9GP+tzJ4sYS6dbOAUKdbNwZSYi/HfiqxFxDep0OEUkhRYF0cTcTvGfyuyHjF30cWRTpHa86sJxNyB8d/KfIb53MZs3x+SpASeo04Absb4b0VKwIV0MYcKLfX+hYd7cnwYMV8BRvo4Dcg7aeFBZvvDLklq8InFJGAG0OQYA7IPC7iD6aztFNIwLeQEYDOHkKQhiDiTuI53K5CybhZb0MwDwI6OsUo7UeJHVNjKKVKowhRibgJGO8YqngHhHCp8wedBSQqkm/OJuBbq+8Zrzowg4jq6ONMpUnd+dRoxXwdGOcYq7ccS7vXiPJIUSExEF1cRcxX1uiBdfn8KcBQRt1Op389KhvfDhG6OIabHB25Ifg/sQZl5TiFJddbFqURc4hBD8iMWsh9TeMYppCGYw1gW8RdgvGNI0hBFHEgbtziECq+H7alyN/AaxxiwRymxF6087BQpUeFzwFSHGNTz4GwepY0Oqo4hSQ0QE9HN5cBnHWNQLqPM55whBXz/YygeBvb0fXlJavg51nTgeMcYlO+zkAPq8d780MO9CgcR043x31BtB9zvlQAlqe4vftt98TssuzCKby+9hamkwVrE6Rj/SdLwxJzj1Y9UeBW2ospcjP8GaxOq3EWFzZ0iFcfxORj/DeV58Fg25jp6vaOBJDXge2xENzMw/huKU5aGk0r2/Opi3/8Yku2Be31fXpIapJcmupmD8d9QvJeR3FGPW9YPLd6rsDvwdbyt4nBtwxLmerIhSXV78XsQEdc4xDDFvJ9F3EAHzY4hDULtnM4XN5I0fG+jh/2cQQV+XbMecDuwoWMMyabAvfS4X8LH8fFAh0MM2RHMZ6YzSFIdxURUuAaY6BhD3vBEujjXIRI7vzoNOM0hhmx7lnA/nX7ISpLqqpcmnuJa4FOOMWS7sGT4F+gZfADYzQ7At4CRPgZ1sQ1LuJcKGzuFJA1DJ+/BOL2ePswmXOEM0iD0cR4w2iEkqQ6qnO0IKqQKo4FbgG0dY1heT5VbmcGaTpGAbg4HvuAQw9ZGhfOcQZLqoD/+i5jkGMMUcTYVPuMQwc+vjgAucohh25oSc40AJalOemliPnOIOdIxhm13FvP14VygZ3C31JnJOJr4CfB6t6+7P9LM7hzLo04hSYM0m01Ywk/BK6rWXUQbbfQ4hLTa8+RtaeIh8MqZklQ3MXvRzr0OocKo0AJ8G/iAY9TNXczjADpY4hSBdLMXMd/1vNjX5ZKUotcVEd10AW2OUTdV4BDKfMspPL/KqD9SZQ8m8m+nkKQh6qWJJ/kiEYc7Rl1/BnAFbZw0lH914FcA7KBEE1/H+K9RvBKgJA3FHEaxhG9j/NcYMVfTw7scQlqNJi7BH8JJUn1FnOUIKphpGP/V2z5szIXOEEgnWxLzNc+L6/66fAbd7OYQkjSk76H9t/01/quvEvAlKrzJKTy/yqhtKDGXHjZ1CkkagtqV/64z/mvI+euJdHHsUE/QBmZjTgf2ce2G2g64n9lGLJI0YIuYCuzsEA0zkiq9zGScU0gr0ck7gAMdQpLqbje62NUZVAjdfBD4tEM0xCl0c7AzNNgM1qTErcB6jlF3LcTcwAw2cwpJGoT+K/95299GWRP4JrMY7xQNcj1jPL9qqK2pcp8RoCQNUi9NPMWXgE86RoNEXEPX4PuHgQWAtV/4HFcOYhuWMNcIUJIGoJt98U2yEDajmW5nkFZ6Rn0JEDmEJDXke+yZjqDcm8FmxFzn+UTDRMRcy0xe5xQN1MTVwBsdomE2pJmv0kuTU0jSAHjlv1C2YgmznKFBFnCV51cNtzVVHqSTLZ1Ckgag/8p/MYc5RkONIuLrTGftwfxLqw8AK4wm4mtAixsH4+2AJWl1rmFdYr6Ib5KFEXMoFT7hENKrzpUPAHZ3CElq2DnI3nTyHodQbnXQTAtfA9Z1jIYaSxM3MJ2RTtEA3RxCxFEO0XDv5UlOdwZJWu1riFr855X/wog4mG5aHaLu51cHA8c5RBBbUmKuEaAkrUZ//OeV/0LZihF8YTD/wkCuAHgO8Hq3Dc7bAUvSqrRwObChQwQ1nWtZ3xmkpTooARc4hCQ1WBNnOIJya2POJTZyDWRnRniHk7rr5DXEXvknmIhz6ObtDiFJK+Ftf5Pa/Uq62Noh6mQGG3l+FdyWlLiHGWzmFJK0Ah00M5+vYPwX+mcAR9HFRwb6j686AKzwJuCzrpoYbwcsSSvSzW7AkQ4R3LosZqozSEttxCeBtziEJDVYzP7GDsrp65odgFMcIqCIU+jizQ5RRyWuAcY6RDDNxMym4t16JGkFrxu87W9yxhDRQ+zdeur0bH8VMN4hgtuKZh6kh9c6hSS9TC9NbMR1wMccIwERM5gzsJ+7lFZ5ogxdeOvfpHk7YEl6uQotxHThrX+TcpS34ZOAXkYQeQUZSQom9iqAyt0xHRFzNf7cLbRmIipLr+Ss4ap9Cv0ghwjuTcSc6AyS9IpzK2/7m7Td6OFTzjBM3XwAA4skbUGVuUaAkrRU7ba/1xNxuGMkZiMWcdFA/sGV/7CrwiHAu90yFbwdsCQt07b0+6KSEdHEFX6aU4U3n0nA6xxCkoI5kB52dAblRjdHArs7RCLeycYc5wzDVGE0EV9wiMRemZ/tLeokaSlv+5umx+KygV6hRivQywhirnGIxG1BlXuosLlTSCq02m1/vwZ8wjESV6aHnVb3D604AKzQQjSwglDBeDtgSZrNWsBZDpGwmHfQzaEOocKq/SDz8w4hSUFF9Pm9Vzkxk3HApQ6RqEvoZANnGNbrwhOBTR0iMaNp4QJnkOTzkbf9TZn1WOTV24fsSY7HDxynxevA2wFLKrBemtiE64GPOkYqlKhy+er/oRX7FLC1G6aOtwOWVGxLmAJs6BCpcJ63zVJhLeJ0YD2HkKTAIg6lkzc6hDKvxBlgfJawcZQ4zRmG6FrWJ+IUh0hYzCcHcgUAScrx90Fv+5tOJzDTiG3Q5jCWyHgyZTanyv0ez5IKp5cmnuJLxBzmGKmyGxUOWNU/UFrhgwmfc7vU8nbAkoqpwmjgBIdI0fPRJhzsDCrg96LNgSkOIUmJKFHiVGdQpl3DukS0O0QqTPTna0O0mNOBtR0iBc+LfXQ4g6RC8ra/aTaCJq/ePmgL+SywrkOkzuY0MdcIUFJh9NLEfL5s/JdaFxATrfyHBK/0JBPw6n9p5+2AJRVRG7C+M6RIzJmrOsmQcupCYJQzSFJiPuZrYWVaMycBazpEKoyij5OcYZCuYV2g1SFSIuKDVHibQ0gqFG/7mwVHMIstnGGArmcMEZMdIrWMACUVQ4UWnuRG4OOOkVpvocK+K/ubpRX80OCzbpYJ3g5YUnHUbjXrFbfSeJLRw67OoMLo4s3AJxxCkhLVwhKOdQZlUoV1iJjoECkSM8moeNDfhU/AiDVtvB2zpCI9d3vb3+y8bvP95oFawCS8+l/abU4T99HJlk4hKZcqtBBzA5F3f8uAM1b2N5YPALt5C/B298oMbwcsqRg2Yj/gtQ6RSmUnUGFETGNFH6CRJIXWToUWZ1AGfQYY6wypMoolnOgMAzSHUWBwkUIfpcLmziAp97ztb7ZEHEeFdRxiNXppAq/+lxFbUOJ7VNjKKSTlivFf1s6x3kcPO63oby3/BmbVk+YM8nbAkorwRGZkllYxh9DJBg6h3OvmA8BeDiFJqbAJER92BmVKB81Au0Ok0tFLwzatzkIm4NVp0qgJOM4ZJOWat/3NojHAEc6wGk9xAHi75AzZHJhrBCgpN2ofsu41/suY6orPiZcFgFewBpH3cs4obwcsKb9qcdn+DpFaIyh5S1TlXC9NxEx1CElKET/AqKzZhP2BjRwilcazkAOdYQD8cF6atXp1XEm55W1/s2wSMZEzrJLnV9mzGUaAkvKglxFAL3CQY2TOJ5jO2q/8i8sCwNF8AFjLnTLL2wFLyqcShwDNDpFqE5xAufYkRwFvcghJSpGIPejkjQ6hzKhylCOk2tFOsBoz2RZ4t0Ok1kbE7OcMknLH2/5m3fZ08XZnWIkZbETMvg6RSUaAkrKtlxHM5waM/7JqTUZx6Cv/4rIAMPLN+xzwdsCS8sfnpyx4F7O8TYFyqnaV7HMcQpJSqOSVEpQR17AukVc1T/nrzr2psLlDrEKTd47JwHHsz08k5Yu3/c3L6zafn1ammUOBJofIrFoEOIvXO4WkTOllBE955b/Mq776HKv00gMMB7hQLtRuBzzD28pIyoFrWJeY9zlE6kX0ecss5dQYTqb2wxxJUvp8akW3OpBSp4XDgZEOkWolYo50hlX6qBOk3oFcwRrOICkXvO1vnkzwNsArPc6NI7NvM/qMACVlSH/8F/u+buZF7Mm1rP/yv1QLAJ/g3cCaLpQb29HM97wSoKTMa2Yv/ARcNsTs7QjKndqJ88kOIUmptRYjOdwZlAGHOEEGlPiQI6xE7fa/OzhEBp4X12RPZ5CUebXb/nYa/+XGZvSwszO8QoX1iHiPQ+TCpkaAkjJhOiN5kpuN/3KjmcXL33GktPT/9U37/PF2wJKyz+en7IjYnele1UQ5s5hzwStLSVLKHe/VJJRqFUYD73SIDIjZiVmMd4gVaGJfR8iMfZxAUsafj/tv+1t2jBypei6xgmN9b/rfp1cebEofD9LD9k4hKZV6GcFIeon4oGPk7nziJf0nFn4yMJ+8HbCkrD9p+fyUHWNYg3c4g3KjdpWT4xxCklLvDVR4nzMoxa9pdsXb/2ZFE1V2d4YVHsd+OC87j5UBoKQsfw/ztr95FXku4SaFsBFV7jMClJQ6vYxgPjcCH3aMHJ5PvOzD8aWlV+t5i8vklrcDlpRNnWwAbOkQGVLlXY6g3GhmKtDiEJKUCZOdQCnmh5qyxNDt1XppImI3h8iMbZnBZs4gKYPPwd72N9924XrGOMNy/OBJPm1ElbvpYmunkJQK0xnJU3wT47+82oBu3tj//ykxkrfgJ5HzztsBS8qeJmOyDHq7EygXutiF2BdDkpQZER+hk9c4hFJ6fO7lCJni7ele6UneCKzlEBnS5G3HJWWMt/0tghYW8jZnWKp257YtHSK3XkPEA3TxBqeQlKjabX9vJGZ/x8i1l34GUCJiJ/coBG8HLClbqj4/ZZABoLIvJiJiGiy7ZLYkKfWaKXnbdqXQDNYEdnSITNnSD9C+Qol3OELGRL42l5Qh3va3OKqeU7ykxS0KYCMi7jMClJSY2m1/bwI+5Bi599LPAErE3oe+QLwdsKTsiHx+yqAtqDDaGZRpFSYA73YIScqcMhVv3a6UGcG2QMkhMqaPNzvCy8Ts7AgZExkVSMrMc4y3/S0WA/V+XvygKDYk4m5msq1TSApqDqOYz7cx/iuKl35uUwK2cY9C8XbAkrLz/UpZE1Hi9c6gzOplBBEXOIQkZdLGwEHOoFSp+kZPJsUGgK/gVUuydwz7gUpJWfhe5W1/i8fnp2W2c4LC2IQmvueVACUFM52RLORGYD/HKIxtiWt3NTMALCZvBywp3WpPUoZkWdTneYUybD6T/N4jSRnmlUOUPr6xl83vJZ4PLs/XeNmzIXMY6wySUsvb/hbV1nR4deyl55ueXxXt3CziPrrZwSkkNdR0RjKCm4j4oGMUyhhm8RqoBYCvcY9C2o5m5hoBSkqlGYwHxjhEBkVs5gjKpNobZGc6hCRlWMz7qfAmh1CKjkmvAJjNx+11jrDcOfIGDpFBi9naESSl9HnW2/4W1xpszKb+GSACn6cLaENi7qbih8QkNcgVrMFIbjH+K6xtoBYAtrhFYW1HM9/zdsCSUmeEcXKG+eaQsmkRZwDrOoQkZVxMuyMoNSLf2MuoLZ1gqSVs7giZ5WMnKY3n6t72Vz4/zWYcXvygqDYGvueVACXV3XRGMoYbgX0co6D6ah+y8FLL2oYlzDUClJQqsRFZhm3oBMqcHjYFjncIScqBiCOZztoOIc+NNQzrO8FSfR7Dfv+RpDrxtr+qvV7z+anP9z4KbgNi7qOTNzqFpLqoXfnvNuAAxyiwUu38wgBQUIsA7/V2wJJSI2acI2RUxHhHUOb0cQmwhkNIUi6syUiOcAalhOfGWf0+Mp2RzgAYkWVX1cdOUooY/8lzi2WMIAUbUOJeI0BJw3YFazCGW4C9HMOfAYABoJbxdsCS0vQieJQjZFTsG2XKmC7eTMRhDiFJuTKZmMgZlKgKLeDrmsxa0yuJLuWH87LKD+dJSouYiG46jf8EQNXnJ6qM9UAQtQjwHrp4g1NIGpIKoxnDrRj/CaBU+/mNAaBeztsBS0oHA8AsMwBU1r7fTPOcWJJyZ3u62M0ZlLAWJ8iwxTQ7AhB5lezM8sN5ktLxvah25T8oO4YAKPn8hB8S0jIbEjHXKwFKGrQKo4FvA3s6hpaed4+onWpJy/N2wJKSV609SSmT/CGOsqOL/fHTUZKUT01MdgQlqpkmR8g0A05f32WbH6yUlDRv+6sVqfr85HO0XqF2O+AKb3IKSQNSi/+87a9eaRQYAGrFvB2wpKRfBHvLtiw/elIW9NJExFSHkKScijmIHjZ1CCVmiT9zy7SSAefSV3d+OC+7z4PGm5KS/B7kbX+1snMsn59irzStV9kAuMcrAUparVr8dxte+U+v1lI71ZJWzNsBS5Kk/JrP0eAPVSQpx5rpo9UZJGkYYj/glVl+sFJSks8d3vZXnlusXIlFHghagQ0ocZ9XApS0UhVGE3MrsLtjaAUW1k4zpJUzApQkSflzBWsA5ziEJOVcRBsVb+MpSZIkBeFtf6WB/Dl50RG0EuuDtwOWtAL98V/EHo6hFYoMADUwRoCSJClf1uQU8LaQklQAGxFxsDNIkiRJDWb8Jw1MxAJH0CoYAUpa3vWMAb5j/KfVnIu/CAaAGhgjQEmSlA+dbEDMSQ4hSQURM9kRJEmSpIaecxv/SQNV5QlH0GqsD3yPHnZyCqngKoxmAbcCuzmGVuO/YACogTMClCRJ2dfEucDaDiFJhbErPezoDJIkSVIDGP9Jg1PlcUfQAIyjyt1GgFKBVRgN3Abs7hgagP+AAaAGxwhQkiRl10y2JeZYh5CkgomZ6AiSJElS3c+zjf+kwVrTAFADNo4qd9DFm51CKpgZrAl8F+M/DVRkAKihMQKUJEnZ1MSlQItDSFLBxHySCus4hCRJklS3c2zjP2kojuR58DbAGrD1iJhLFzs7hVQQ1zOGZm4BdnUMDViVf4ABoIbGCFCSJGVLF7sCH3YISSqkNYEjnEGSJEmqA+M/abj+6AQahHFE3GUEKBXA9YzhRW/7qyFYUju3MADUUBkBSpKkbIiJiLjEISSp0CYREzmDJEmSNAzGf1I9GABqsMYRcbcRoJRj/fFfzPsdQ4P0JMfXri5sAKjh2IYl3GcEKEmSUq2HjwG7OIQkFdr2zPLTs5IkSdKQGf9J9fJbJ9AQjCXiDjp5q1NIOTObtXiRO43/NEQP9f8fBoAarm2NACVJUmr1MoKY8x1CkkSVyY4gSZIkDUFMRDdXG/9JdRDxE0fQEK1Lifvo5u1OIeXE9YxhCbcS8x7H0BD9v/7/wwBQ9WAEKEmS0mk+k4HXO4QkCfgwPWzqDJIkSdIg9Md/+IEaqS5G8TNgiUNoiMYSc5cRoJQD1zOGBdwO7OYYGoaf9v8fBoCqFyNASZKULnMYC3zeISRJSzVTpc0ZJEmSpAEy/pPq70iex9sAa3jGEnMnPezkFFJGTWdtFnA3xn8aPq8AqIYwApQkSemxkM8D6zqEJOllykxnpDNIkiRJq2H8JzXSPU6gYRpHlXvo5B1OIWXMdNZmBHcCuziGhukPlHmk//9jAKh6MwKUJEnJ62RLIo53CEnSK2zAKA52BkmSJGkVjP+kxoq42xFUB2MpcZcRoJQhFdZhBHcS8S7HUB3OJ+56+f/XAFCNYAQoSZKSPum9ABjlEJKkV4l9E1OSJElaxfmy8Z/UaM/xAPCCQ6gO1qHEHXSxs1NIKVdhHWLuMP5THRkAKggjQEmSlIxu3kLEYQ4hSVqJ91Lhbc4gSZIkvYLxnxTGiSwAvusQqpNxRNxDhXc6hZRSxn+qv2do4Z6X/wUDQDWSEaAkSQov5jLPcyVJq9HmBJIkSdLLGP9JYUX0OoLqaB3gTiNAKYUqS/98Gv+pvucR3+JoXnz5X/KNUTWaEaAkSQr5QuoAYC+HkCStxhHMZJwzSJIkSRj/Scn8ubsNeM4hVEfrAHfQyTucQkqJOYwl4i4wzlXd3fjKv2AAqBCMACVJUuP10gRc4hCSpAEYTRNHOIMkSZIKz/hPSkaZF4CvO4TqbCwl7qLHK41JiauwDou4g9goV3U3j5g7X/kXDQAVihGgJElqrKc4BnijQ0iSBuh4YiJnkCRJUmEZ/0nJipjhCGqAdahyhxGglKAK63jlPzVQN2UWv/IvGgAqJCNASZLUGFewBjFnO4QkaRC2poc9nUGSJEmFZPwnJa+NXwI/dQg1gBGglJSZjAPu8cp/apAllJi1or9hAKjQjAAlSVL9rckpwKYOIUkalNg3OyVJklTI82DjPyk9fx4vdwQ1yDpUuZMudnEKKZA5jKWZO4CdHUMN8jVa+deK/oYBoJJgBChJkuqnkw2IOckhJElD8CFmsYUzSJIkqTCM/6R0Gc9NwB8dQg2yNhF3081uTiE12BzGsoi7vPKfGnomX+XSlf1NA0AlxQhQkiTVR4nzgLUdQpI0BE300eoMkiRJKgTjPyl9JtBHxFSHUAONIeYWunm3U0gNMovxLOJe4O2OoQb6NhN5aGV/0wBQSTIClCRJwzOTbYFjHUKSNAxtTGekM0iSJCnXjP+k9BrLF4HfOoQaaG1i7vJKgFIDzGEsfdwBvM0x1EB9RJy5qn/AAFBJMwKUJElD18RlQLNDSJKGYX1GcogzSJIkKbeM/6R0m0AfMac7hBpsDDG308n7nUKqk/7b/nrlPzXebNpW/WEBA0ClgRGgJEkavC52BT7kEJKkOvCNUEmSJOWT8Z+UDe3cSsT9DqEGG0OJW6jwXqeQhuka1mUR92H8p8Z7FuhY3T9kAKi0MAKUJEkDFxMRcYlDSJLq5N1UvE2HJEmScsb4T8qWJbQDLzqEGmwt4A6vBCgNw0zG0cIdwFsdQw0XcRZl5q3uHzMAVJoYAUqSpIHp4WPALg4hSaqbmHZHkCRJUo7Ob43/pKyZxB+AqQ6hAMZQ4jYq7O4U0iDNZBxN3AXs7BgK4KeM5ZqB/IMGgEobI0BJkrRqvYwg5gKHkCTVVcThzGK8Q0iSJCnzjP+k7FrIxcBDDqEAxgC30MP7nEIaoArr0cRcjP8U6qygxHFMoG8g/7ABoNLICFCSJK3ckxwPbOUQkqQ6G00fRzqDJEmSMs34T8q2KSwk4uPAAsdQAGtS5Q6vBCgNwEzGAXcAb3YMBTqvP4NWfj3Qf9wAUGllBChJkl5tDmOJOMMhJEkNMpkOf1YiSZKkjDL+k/Khjd8CpzmEAhkN3EYPeziFtBLXsj5N3A/s5BgKIuJuylw5mH/FH2orzYwAJUnS8hZxJrCuQ0iSGuT1bMxeziBJkqTMMf6T8qWNq4m4ySEUyGiq3EI3uzmF9ArXsj6LuQfY0TEUyD+JOIKIeDD/kgGg0s4IUJIk1XSyJXC8Q0iSGipikiNIkiQpU4z/pDy+No15jiOBnzuGAhlDzHe8EqD0MrX4716M/xTOi0QcQiuPD/ZfNABUFhgBSpIkKHEhMNIhJEkNFfPBpdG5JEmSlIXzV+M/Ka9OZAElPgr81zEUSO1KgBV2dwoVXicbsJj7gDc5hoKd2cccQxs/Hcq/bACorDAClCSpyLp5C/Bxh5AkBdBERJszSJIkKfWM/6T8a+VvxOwNPOUYCmQMcBtd7OkUKqxrWZ8S9wBvdAwFE/E52vnaUP91A0BlybYs4R5msJFTSJJUMDHTPHeVJAUT0cocRjmEJEmSUsv4TyqOdn4FfARY6BgKZDQRtxgBqpBqV/67F6/8p5AiptLGtOH8Er6JqqzZnmbu90qAkiQVSDcfBH/QIEkKaj0WcqgzSJIkKZViInqYifGfVBxl5lK7Q8pix1AgtQiwhz2cQoXRw4aUvO2vAovoopXTh/vLGAAqi7wdsCRJRdFLEzGXOIQkKbiISY4gSZKk1Om/8l9Mu2NIBVPmW8DBeCVAhTOaKrfRzV5OodzrZAOq3APs4BgKeG7fw6NMJiIe7i9lAKisMgKUJKkI5nOsL7YkSQnZhR52cgZJkiSlhrf9lVTmdmJvB6yg1iDmFiNA5VonG1DiXuCNjqGA5/Y9PEY7HVTr8csZACrLjAAlScqz6xkDdDiEJCkxMRMdQZIkSSk5NzX+k1TTzneMABVYLQLsYm+nUO7U4r/7MP5T2HP7HsqU6xX/gQGgss8IUJKkvFrAycDGDiFJSkzMJ5jFeIeQJElSwuelxn+SltfOd4i8HbCCWoOIW6lwgFMoN3rYcGn8552oFFI3Zcr1uO3vyxkAKg+MACVJyptONgBOcghJUsLWYAlHOYMkSZISY/wnaWXa+O7SCPBFx1AgI4Gb6eaDTqHM62FDqtyL8Z/C6qaN9nrHf2AAqPwwApQkKU9KnA+s5RCSpMRFTKLDn59IkiQpAcZ/klanFgF+BCNAhTOSmJuMAJVptfjPK/8ptEqj4j8wAFS+GAFKkpSP09/tgGMcQpKUEluxEfs4gyRJkoIy/pM0UG18l9grASqokcReCVAZtSz+e4NjKKAKbUxsVPwHBoDKHyNASZKyLuYyoNkhJEmpETHJESRJkhSM8Z+kwWrnDiNABTaCmJvp4kNOocww/lMyGh7/gQGg8skIUJKkrOpiVyI/NShJSp0D6OG1ziBJkqSGM/6TNFRGgApvBBE3GQEqE4z/lIyrQsR/YACo/DIClCQpa2IiIi5xCElSCpWIKTuDJEmSGsr4T9JwGQEqPCNApd8MNjL+UwKuoo0TQ8R/YACofDMClCQpSyp8HNjFISRJqRRzLHMY5RCSJElq0Pmm8Z+k+mjnDiIOwghQ4dQiwG4+7BRKnRlsRLPxn4K7ijKfDRX/gQGg8s8IUJKkLOhlBBHnO4QkKcXWYyETnEGSJEl1Z/wnqd7auNMIUIGNIOZGI0ClyrL4b3vHUEBXUuazof+jBoAqAiNASZLSbj6fBrZyCElSqkVMcgRJkiTVlfGfpEZp407gQIwAFY4RoNKjh01p5kGM/xTWlZQ5MYn/sAGgisIIUJKktJrJOOB0h5AkZcA76WJnZ5AkSVJdGP9JarQyd1GLABc4hgKpRYBdHOgUSkwPm1JlLvB6x1AwEVckFf+BAaCKxQhQkqQ0auLzwLoOIUnKBK8CKEmSpHow/pMUSi0CPAgjQIUzgoheI0AlYgabGf8puIgraOOkJH8LzT4KKpj+CHAPjuVR55AkKWGdbAkc7xCF9Gvgx86gXIuJiDgKaHGMXPk4sziZ43jSKSRJkjTk1wrGf5JCKnMXXRxIxLeBNRxEAdQiwAofo8y3nENBzGAzmpkLbOUYCuhy2jg56d+EAaCKyAhQkqS0aOIiYkY6ROH0UeVwJvKQUyj3KjQBxzhErqxBlWOAaU4hSZKkQTP+k5SUdu42AlRgI4AbjAAVhPGfknE55eTjP/AWwCoubwcsSVLSOnkrMR9ziEKabfynArkIWOIMORMzkQ5/piJJkqRBn0ca/0lKVjt3E7Mf8LxjKJD+CPAgp1DDGP8pGamJ/8AAUMVmBChJUrJnopd5PlpIzwEdzqDCKPMXYm5wiNx5HZuwrzNIkiRpwIz/JKVFOw8Qsz9GgApnBNBrBKiGMP5TMuf209IU/4FvuEpGgJIkJaGLDwF7OkQhTaPMPGdQoTRxIVB1iJyJfeNWkiRJAz53NP6TlC7LIsDnHEOBtAC9dHOwU6huKmxu/KcEzu2n0c4pafttGQBKRoCSJIXVSxMRFztEIT1OM1c4gwqnlYeBmx0idz7ATF7nDJIkSVol4z9JaVWLAA/ACFDhtBBzgxGg6qLC5mD8p+AuS2P8BwaAUj8jQEmSQpnPccAODlFIZ3IszzqDCiniXLwKYN6UaKLdGSRJkrRSxn+S0q6dByh5JUAFVYsAu/iIU2jIlsV/fjhXIV1Gmc+l9TdnACgtYwQoSVKjzWBN4ByHKKSHmcd1zqDCauO3wG0OkTvHUWG0M0iSJOlVjP8kZUUrDxoBKrAWInrp4jCn0KAZ/ykZl6Y5/gMDQOmVjAAlSWqkZk4GNnaIAoo4iQ6WOIQK7lwgdoZcGQd81BkkSZK0HOM/SVljBKjwmoj4khGgBqUW/92P8Z/CupQyp6b9N2kAKL2aEaAkSY3QyQbAiQ5RSHNp47vOoMIr8wvgTofInSlOIEmSpJcY/0nKqlYeBD6AEaDCqUWAFT7hFFqtWWxBLf57rWMomIipWYj/wABQWhkjQEmS6n+SfAGwlkMUTpUSpziD9NKr8HMdIXfeRjdvdwZJkiQZ/0nKvDLfpxYBPusYCqQJuN4IUKs0iy3oYy7GfwopYiptnJaV364BoLRyRoCSJNVLhe2IONohCulLtPJzZ5CWauXHwFyHyJnYN3glSZI8JzT+k5QTtQhwf4wAFY4RoFbO+E9JyFj8BwaA0uoYAUqSVA8xlwHNDlE4C4CznUF6lfOdIHc+vvRW95IkSSoi4z9JeVPm+1S9EqCCqkWA3RzuFHqJ8Z+S0ZG1+A8MAKWBMAKUJGk4utmNiA86RCFdSZlHnEF6hTJziXnQIXJlJCWOcgZJkqQCMv6TlFcT+YERoAJrIuaLRoAC+uO/+zH+U1gdlDk3i79xA0BpYIwAJUkaipiImGkOUUj/BS51BmmlLnKC3JlEL03OIEmSVCDGf5LyzghQ4dUiwC4+6RQF1smWS+O/LR1DAWU2/gMDQGkwjAAlSRqsbg4DdnaIAorooMzTDiGtRDt3AD91iFzZgvns5wySJEkFYfwnqSiMABVeExHXGQEWVCdbUmIuxn8KKeKcLMd/YAAoDZYRoCRJA9XLCOA8hyikPxDT4wzSakRc4Ai545u/kiRJRWD8J6loJvIDIvbDCFDhGAEWURdbU+JBjP8UUsQ5tGX//UwDQGnwjAAlSRqIp5gCbOUQBRRzKmUWO4S0Gq3cCvzcIXJlP7rZxhkkSZJy/ZrX+E9SMbXxw6UR4DOOoUBqEWA3RzhFAXSxNRFzgU0dQwGdnYf4DwwApaEyApQkaVVmMo6Y0x2ikH5EmVucQRqAiBiY6hA5e1SrtDqDJElSThn/SSq6WgT4AYwAFU4TMXOMAHNuWfz3GsdQQGdT5vy8fDEGgNLQ1SLAChs7hSRJr9DMmcB4hyicmIiTl0ZNkgZiHjcDDzlEjkQcS4XRDiFJkpTDV7zGf5JUiwBjrwSooGoRYBdHOkUOGf8pmXP7s/IU/4EBoDRc2wJzjQAlSXqZTrYk9ofhBXUDbfzQGaRB6KBKxCUOkSvjiPmYM0iSJOWI8Z8kLa+dHxkBKrAmIq41AsyZbrYx/lMC5/Zn0c4FefuyDACl4TMClCRp+TPMi4GRDlE4i4AznUEagrF8HfijQ+RIxKcdQZIkKSdq8d90jP8kaXnt/IgSewDzHUOB1CLACp9yihzoZhti4z8Fd2Ye4z8wAJTqxQhQkqTaC7a3g1c9KqirKfMXZ5CGYAJ9REx1iFx5KxXe6QySJEkZtyz+O94xJGkFWvk5JfbGCFDhNIERYOYti/82cQwFdCZlLszrF2cAKNWPEaAkSVUuASKHKJz5LOZiZ5CGIeZLwN8cIle8QowkSVK2z9GN/yRpIIwAFV4JI8DsMv5TMnId//V/Y5RUP0aAkqQiv2j7MBF7OEQhnc/xPOEM0jCUWUzMpQ6RKxPoZANnkCRJyiDjP0kanGUR4JOOoUCMALNoJtsa/ykBn897/Nf/TVFSfRkBSpKKp5cmYi5yiEL6GwuZ6QxSHSxiDvAvh8iNkUQc7QySJEkZY/wnSUPTys/BCFBB1SLAbo5yigyYybY0cR/Gfwrr85SL8f6lAaDUGEaAkqRimc9xwA4OUUARpzGFhQ4h1cEUFhIxzSFy9T1yEr00OYQkSVJGGP9J0vCU+QVGgAqrRMy1dNHuFClm/KckRJxRlPiv9s1QUqMYAUqSimEGawLnOEQhXzz9hFZudAipjlqoAPMcIjc250n2dwZJkqQMMP6TpPowAlR4EREzjQBTqhb/edtfhf6ucAZtXFykL9kAUGosI0BJUv41cQr4XFdIMScRETuEVEdH8yJwpUPkymQnkCRJSv3rW+M/SaqnMr+gyl4YASqcWgRYYaJTpEiF7ZbGf76HpJBOL1r8BwaAUghGgJKk/OphQyI+6xCF9A3KfN8ZpAZYg5nAfx0iJyL2oZttHEKSJCmljP8kqTEm8n9LI8AnHEOBRMAMI8CUqLAdcB/GfwrrdMpcUsQv3ABQCsMIUJKUT1UuANZyiMJZQokznUFqkCN5npjpDpEbEVB2BkmSpBQy/pOkxqpFgHtjBKhwahFgN5OcIkHGf0rmzP4zRY3/wABQCskIUJKUxxdwRzlEAUV00srDDiE10CKmA/MdIidijuF6xjiEJElSqs7RjP8kKYSJ/B+RVwJUUBEx1xgBJqT23pG3/VXoM/vP0sYXijyCAaAUlhGgJClPpgHNzlA4zxJxoTNIDTaFZ4BrHCI3xvICH3cGSZKklDD+k6Sw2vilEaACMwJMwrL4byPHULAze/hM0eM/MACUkmAEKEnKvm52Aw5wiEK6iFYedwYpgCauAp51iJyIfHNZkiQpFYz/JCkZRoAKzwgwpB62x/hPoc/s4TOUme4UBoBSUowAJUlZPp2OiJnmEIX0b/CFlBTMcTxJxEyHyI230MUuziBJkpQg4z9JSpYRoMKrRYAVJjtFA/WwPVXuw/hPIc/sjf+WYwAoJccIUJKU1RdynwB2dogCijidMi84hBRQLbh+ziFy833UT5xLkiQld25t/CdJabAsAvyfYyiQCLjaCLBBetiRKg9g/KeQZ/YxJxj/Lc8AUEqWEaAkKVt6GUHMeQ5RSL/iUb7iDFJgZf4HzHKI3JhADxs6gyRJUmDGf5KULm38ktgIUEH1R4CeC9RTF2+myr3Aeo6hYGf2MSfQztVOsTwDQCl5RoCSpOyYzwnA6xyigCJOpoOqQ0gJWMJUYIFD5MIIYo5xBkmSpICM/yQpndr5lRGgAouA6UaAddLFm4m4B+M/hTyzhynGfytmACilgxGgJCn9ZjIOOM0hCul22rjHGaSETOYxYuY4RE7EtNNLk0NIkiQFOfcy/pOkNDMCVHi1CLCLTzvFMBj/KYkze5hCmWucYsUMAKX0MAKUJKVbE2cB4x2icPqoGn5KKfiTeAmwyCFyYXOe5IPOIEmS1GDGf5KUDe38ihJ7YgSocCIivmAEOETdvMX4T8HP7OHTxn+rZgAopYsRoCQpnXp4LTDJIQppNhN5yBmkhE3mn0R8ySFyIvI5VZIkqaGM/yQpW1r5NSV2BR5zDAVSiwArTHGKQejmLcTGfwp8Zl+L/2Y4xaoZAErpYwQoSUqfKhcDIx2icJ4DOpxBSoklXAQscYhc2JuZbOsMkiRJDWD8J0nZ1MrDlNgDI0CFEwFXGQEO0LL4b13HUMAz++ON/wbGAFBKJyNASVJ6dPIOYIJDFNI0ysxzBiklJvFX4GsOkQsRTbQ7gyRJUp0Z/0lStrXyMLA7RoAKxwhwIIz/lMyZ/fG0MdMpBsYAUEovI0BJUlpe/l689EWwiuVxmrnCGaTUuQioOkMuHMX1jHEGSZKkOjH+k6R8KPN7jAAVVi0C7OYEp1gB4z8lc2Zv/DdIBoBSuhkBSpKS1cWBROzhEIV0JsfyrDNIKVPm98Tc5BC5MJYX+YQzSJIk1YHxnyTly7II0LuTKJSImCuNAF+hk7ca/ymBM3vjvyEwAJTSzwhQkpSMXpqIuNAhCulh5nGdM0ipfSV/Hl4FMB9iJjuCJEnSsM+pjP8kKY9qEeAeGAEqnIiYq6hwmlNQi/9K3I3xn0Ke2cNk47+hMQCUssEIUJIU3pO0Ajs4RAFFnEQHSxxCSqk2fgvc4hC58GY6eY8zSJIkDZHxnyTlmxGgknFx4SPAWvznlf8U9sweJlOm0ymGxgBQyg4jQElSODNYk4hzHKKQ5tLGd51BSrkq51H7oYiyrsQkR5AkSRoC4z9JKoYyv6fP2wEruIvp5vRCfuUV3rY0/hvvYaBgZ/Yxk4z/hscAUMoWI0BJUhjNfA7YyCEKp0qJU5xByoCJ/B9wh0PkwqH0sKEzSJIkDYLxnyQVyyT+sDQCfNQxFPB846LCRYAV3gbcjfGfQv5Ji5lEO11OMTwGgFL2GAFKkhprNpsAJzpEIX2JVn7uDFJmXtGf5wi5MIIqxzmDJEnSABn/SVIx1SLAPTACVNjzjouocEYhvlbjP4VXJeIY47/6MACUsskIUJLUOH2cB4xxiMJZAJztDFKGtPJj4F6HyIUyHTQ7gyRJ0moY/0lSsRkBKhkX5j4C7GEnjP8UVhU4hjauc4r6MACUsssIUJLUiBd52xPzKYcopCsp84gzSBlT5QJHyIXN2IQPOYMkSdIqGP9JkqAWAUbeDljBXUiFz+fyK+thJ6rGfwqqFv+V+aJT1I8BoJRtRoCSpPqKmQZegaiA/gtc6gxSBk3kfmIedIhcPAdPcgRJkqSVnisZ/0mSlmnjj0aASsAFuYsAl8V/43x4FYjxX4MYAErZZwQoSaqPTt5PzP4OUUARHZR52iGkzP4Z9iqA+bAX3ezgDJIkSa9g/CdJWhEjQCUjPxGg8Z/C68P4r2EMAKV8MAKUJA1PTESJaQ5RSH8gpscZpAwrcxfwQ4fIxfNxmyNIkiQtd35k/CdJWrllEeC/HUMBXUAXZ2b6K+hiF6rch/GfwukjNv5rJANAKT+MACVJQ1fhcGAnhyigmFMps9ghpMz/Wb7EEXLhaGazljNIkiRh/CdJGpg2/khsBKjAIs7PbATYxS5E3AGs7QOpQGrxXzvXO0XjGABK+WIEKEkavDmM8vaRhfUjytziDFIOtHMr8HOHyLy1WMInnEGSJBWe8Z8kaTDa+ZMRoIKLOJ8KZ2Xq99zNu43/FFgfEUcb/zWeAaCUP0aAkqTBWcQUYAuHKJyYmJOIiJ1CyomIix0hFz7tBJIkqeCvVo3/JEmDZwSoZJyXmQiwm3cT812M/xROLf5r40tO0XgGgFI+GQFKkgZmJuOAUx2ikG6gnR85g5QjrXwD+I1DZN4OVHivM0iSpEIy/pMkDceyCPBfjqGAzqObs1P9O6zFf175TyH1EXOU8V84BoBSfhkBSpJWr4mzgfEOUTiLgDOdQcqZ2hU9L3GIXJjsBJIkqXCM/yRJ9dDOn6jyPuDvjqGA5zHnpjYC7OQ9S+O/tXygFEgt/mvny04RjgGglG9GgJKklevhtcBEhyikqynzF2eQcmgcNwB/cIjMO4TZbOIMkiSpMIz/JEn1NJG/U2V3jAAV9nzmXCqck6rfUyfvocR3Mf5TOMZ/CTEAlPLPCFCStLJT8EuAkQ5ROPNZzMXOIOXUBPqIvApgDrSwhGOdQZIkFYLxnySpESbyd5p4P0aACqsjNRGg8Z/C6yPiU8Z/yTAAlIrBCFCS9MoXfu8g4qMOUUjnczxPOIOUYzFfAf7mEJnXToUWZ5AkSTk/dzX+kyQ1znH8wwhQCUg+AjT+U3i1+K+NrzhFMgwApeIwApQkvfws8BIgcojC+RsLmekMUs6VWQxMdYjM24SIDzuDJEnKLeM/SVIIyyJAPyypkDroTuguHRXea/ynwIz/UsAAUCoWI0BJEnRxILC7QxRQxGlMYaFDSIVwLfAPZ8i4KpMcQZIk5ZLxnyQppFoEuDtGgAp7vnNq8AiwwnuB72D8p3D6gCON/5JnACgVjxGgJBVZL01EXOQQBRTxE1q50SGkgiizmJjLHSLz37v3oJM3OoQkScoV4z9JUhKMAJXMeU+4CLAW/3nlP4VUi//KfNUpkmcAKBWTEaAkFdV82oA3OEQBxZxEROwQUoGMpAd41CEyrkTZESRJUo5emxr/SZKScxz/AG8HrODnP6dSYWpD/xs9vI9a/LemgyuQPmKOMP5LDwNAqbiMACWpaGawJnC2QxTSNyjzfWeQCuZoXiTiSofIvE8xnbWdQZIkZZ7xnyQpDco8Qi0C/KtjKKDPNSwC7OF9VPkOxn8Kpxb/tfM1p0gPA0Cp2IwAJalIWjgV2MghCmcJJc50BqmgRtEJ/NchMm0tRnK4M0iSpEwz/pMkpUktAtwdI0CF9TkqXFrXX9H4T+EtJmaC8V/6GABKMgKUpCKYzSbEfNYhCiiik1YedgipoI7keeAqh8i844mJnEGSJGWS8Z8kKY2MAJWMU+oWAXaxq/GfAltMxMdo5xtOkT4GgJLACFCS8q+P84AxDlE4zxJxoTNIBbeQa4D5DpFpb6DC+5xBkiRljvGfJCnNlkWAf3EMBXQKXVw2rF+hi12JuB3jP4VTi//a+KZTpJMBoKR+RoCSlFc9bE/MpxyikC6ilcedQSq4KTwDTHeIzJvsBJIkKVOM/yRJWVDmEZYYASqwiJOHHAHW4j+v/KeQFgMTjP/SzQBQ0ssZAUpSHlW5HGh2iML5NwY/kvqN4CrgaYfIsIiP0MlrHEKSJGWC8Z8kKUsm808jQAUXcTIVpg3q31kW/3nHJ4VSi//KfMsp0s0AUNIrGQFKUp508n7gAw5RQBGnU+YFh5AEwNE8BXQ6RKY1U+I4Z5AkSaln/CdJyiIjQCXjpAFHgF3sTcQdGP8pnEUY/2WGAaCkFTEClKQ86KBEaZCfHlNe/IpH+YozSFrOYqYBzzlEppWp0OIMkiQptYz/JElZZgSoZKw+AqzFf98G1nAuBbII+JjxX3YYAEpaGSNAScq6TTgc2MkhCijiZDqoOoSk5RzPE0R0O0SmbUzMgc4gSZJSyfhPkpQHyyLAPzuGAjqJbi5f4d+psI/xnwJbROyV/7LGAFDSqhgBSlJWzWEUMec7RCHdThv3OIOkFVrMZcACh8iwEpMdQZIkpY7xnyQpTybzT0pGgAp+PnXiqyLACvsA38L4T+HU4r92vu0U2WIAKGl1jAAlKZun51OALRyicPqocpozSFqpyTwGXOsQGRbzfiq8ySEkSVKKzk+M/yRJ+dPKv4wAlcB51YlUuALoj/+88p9CWkTER43/sskAMLsWAEucQYFsC9xNDxs6hSRlwEzGAac6RCHNZiIPOYOkVVrCVGCRQ2RYTLsjSJKklJyXGP9JkvKrlX+xhPcBDzuGAvosFW6mFv+Ncg4FUov/2rjFKbLJADC75hHxcWCxUyiQHajyPa8EKEmZOMM7BxjvEIXzHNDhDJJWazL/JOaLDpFhEUcynbUdQpIkJaoW/12N8Z/CWugEkoKazGMsYQ+MABXWRzD+UzjGfzlgAJhlbdxMxGEYASocbwcsSWnXw2uJvCpQQU2jzDxnkDQgVS7Bq8pn2ZqM4pPOIEmSErPsyn+THUMB3UDM15xBUnDLIsDfOYaknFlEzKHGf9lnAJh1RoAKzwhQktKsylRgpEMUzuM0c4UzSBqwSfyViK86RIbFHE9M5BCSJCmB8xBv+6sk3MA8PknkB5kkJWQyj1EyApSUK7X4r51bnSL7DADzwAhQ4RkBSlIadfIO4FCHKKQzOZZnnUHSIH8icD7Q5xCZtT1d7OYMkiQpKOM/JaMW/3UY/0lKWCuPGwFKygnjv5wxAMwLI0CFZwQoSek7s7scvBJQAT3MPK5zBkmDdhx/Bm50iAxr8pZ7kiQpIOM/JcP4T1K6GAFKyr5FRBxi/JcvBoB5YgSo8IwAJSktKhwEvNchCijiJH8ILmnIYs4Hqg6R2cfvIHrY1CEkSVKA8w7jPyXB+E9SOhkBSsquhUQcQhu3OUW+GADmjRGgwtsWuM8IUJIS1EEzcKFDFNJc2viuM0gasnZ+R8y3HSKzmqlynDNIkqSGMv5TMoz/JKXbsgjwt44hKSMWEnGo8V8+GQDmkRGgwtsOI0BJSs4mtAFvcIjCqVLiFGeQVIefDJwHxA6R4Z8CVGhxBkmS1BAxET18AeM/hWX8JykbahHgnhgBSkq/heCV//LMADCvjAAVnhGgJCVhBmsSc5ZDFNKXaOXnziCpDq8ffwl8xyEya2MiDnYGSZJUd/3xX8ynHUMBGf9JypZWHqfqlQAlpdoCYj5EmdudIr8MAPPMCFDhGQFKUmjNnAZs5BAFfLEGZzuDpDo63wkyLGayI0iSpDqfXxj/KQnGf5KyaSL/WRoBPuQYklJmAREfpp27nSLfmp0g59q4mW4OI+Zr4C2BFER/BLgHZeY5hyQ10Gw2YQmfdYgCirmKdh5xCEl1U+b/0cVMIrZxjIzqZAMm8h+HSIlmqizhrw6RWX6YVlLRX3Ma/ykJxn+Ssm0i/6GTPSlxL/BGB5GUArX4r417nCL/DACLwAhQ4RkBSlIISzgfGO0QhfNfIqY6g6S6a/cqclLdHMuzwFYOIUnKHOM/JcP4T1I+GAFKSo8XiDjQ+K84vAVwUXg7YIXn7YAlqZF62B440iEKKKKDMk87hCRJkiSproz/lAzjP0n5Ursd8J7AbxxDUkJeIPbKf0VjAFgkRoAKzwhQkhqlyhV4Neci+gMxPc4gSZIkSaor4z8lw/hPUj5N5D+0GAFKSkQt/mvnXqcoFgPAojECVHhGgJJUbxV2B/ZziAKKOZWy53GSJEmSpLq+1jT+UxKM/yTl2zH81whQUmAvUOJDxn/FZABYREaACs8IUJLqpYMScJlDFNKPKHOLM0iSJEmS6sb4T8kw/pNUDEaAksKpxX+t3OcUxWQAWFRGgArPCFCS6mEjPgns5BCFExNzEhGxU0iSJEmS6vRK0/hPSTD+k1QsRoCSGs/4TwaAhWYEqPCMACVpOOYwiojzHKKQbqCdHzmDJEmSJKkujP+UDOM/ScW0LAL8tWNIqjPjPwEGgDICVHhGgJI0VAs5AdjCIQpnEXCmM0iSJEmS6sL4T8kw/pNUbMfwX/p4P/Bzx5BUJy8AHzT+ExgACowAlQQjQEkarJmMI+JzDlFIV1PmL84gSZIkSRo24z8lw/hPkgAmMZ8+9sYIUNLw1eK/MnOdQmAAqH5GgArPCFCSBqOJDmC8QxTOfBZzsTNIkiRJkobN+E/JMP6TpJdbFgH+zDEkDdHzGP/pFQwAtYwRoMIzApSkgZjJ64CyQxTS+RzPE84gSZIkSRoW4z8lw/hPklakFgHugxGgpMF7nqrxn17NAFDLMwJUeEaAkrQ6zUwFRjpE4fyNhcx0BkmSJEnSsBj/KRnGf5K0KpOYzwivBChpUGrx30Tudwq9kgGgXs0IUOEZAUrSynTyDmIOcYgCijiNKSx0CEmSJEnSkBn/KRnGf5I0EEfz1NII8KeOIWk1jP+0SgaAWjEjQIVnBChJKz5buxyIHKJgIn5CKzc6hCRJkiRpyIz/lAzjP0kajFoEuA9GgJJW7nkiDjD+06oYAGrljAAVnhGgJL1cNwcD73WIAoo5iYjYISRJkiRJQ3xdafynJBj/SdJQGAFKWrla/NfG95xCq2IAqFUzAlR4RoCSBNBBMzEXOkQhfYMy33cGSZIkSdKQGP8pGcZ/kjQcRoCSXs34TwNmAKjVMwJUeEaAkrQxZWB7hyicxUSc7gySJEmSpCEx/lMyjP8kqR76I8CInziGVHjPE7O/8Z8GygBQA2MEqPCMACUV12zWAs5yiAKK6KKNPzqEJEmSJGnQjP+UDOM/Saqno3mKFvY1ApQK7RlK7EU7DziFBsoAUANnBKjwjAAlFdMSTgU2dIjCeZbI2z5LkiRJkobA+E/JMP6TpEY4mqeIvRKgVFBPU2JfWvmxU2gwDAA1OEaACs8IUFKxzGYT4DMOUUgX0crjziBJkiRJGhTjPyXD+E+SGqnM08TsA/w/x5AK42lK7Gf8p6EwANTgGQEqPCNAScWxhAuAMQ5ROP8GpjuDJEmSJGlQjP+UDOM/SQqhzNPAvhgBSkVQ+/Nu/KchMgDU0BgBKjwjQEn5V+FNwJEOUUARp1PmBYeQJEmSJA2Y8Z+SYfwnSSEZAUpFUPtzXvbPuYbOAFBDZwSo8IwAJeVbzGVAk0MUzq94lK84gyRJkiRpwIz/lAzjP0lKQn8EGHtlMCmHjP9UFwaAGh4jQIVnBCgpnyrsTsS+DlFAESfTQdUhJEmSJEkDYvynZBj/SVKSyjxNxH5GgFKuPE2VfYz/VA8GgBo+I0CFZwQoKV86KAHTHKKQbqeNe5xBkiRJkjQgxn9KhvGfJKWBEaCUJ7X4byI/cQrVgwGg6sMIUOEZAUrKj405AnibQxROH1VOcwZJkiRJ0oAY/ykZxn+SlCZlnmaRtwOWMu4p4z/VmwGg6scIUOEZAUrKvjmMAs5ziEKazUQecgZJkiRJ0moZ/ykZxn+SlEZTeIbR7AU84BhS5jxFlX2N/1RvBoCqLyNAhWcEKCnbFvEZYHOHKJzngA5nkCRJkiStlvGfkmH8J0lpdiTPswb7A99zDCkzniLyyn9qDANA1Z8RoMIzApSUTRXWA28BW1DTKDPPGSRJkiRJq2T8p2QY/0lSFtQiwAMwApSyoBb/tfFTp1AjGACqMYwAFZ4RoKTsiTgbWMchCmceazDNGSRJkiRJq2T8p2QY/0lSlvRHgBH3O4aUWsZ/ajgDQDWOEaDCMwKUlB0zeR0xZYcopLM5kuedQZIkSZK0UsZ/SobxnyRl0ZE8zyg+aAQopdJTxOxt/KdGMwBUYxkBKjwjQEnZ0MxUYIRDFM7DzOM6Z5AkSZIkrZTxn5Jh/CdJWWYEKKXRfGL2pp2fOYUazQBQjWcEqPCMACWlW4V3EnOIQxRQxEn+IF2SJEmStFLGf0qG8Z8k5UF/BAhzHUNK3Hxi9jH+UygGgArDCFDhGQFKSrNpQOQMhTOXNr7rDJIkSZKkFTL+UzKM/yQpT47keTAClBI2n5JX/lNYBoAKxwhQ4RkBSkqfLj4CvNchCqdKiVOcQZIkSZK0QsZ/SobxnyTlUZkXMAKUklKL/1r5uVMoJANAhWUEqPCMACWlRwfNRFzgEIX0JV/sSZIkSZJWyPhPyTD+k6Q8MwKUkmD8p8QYACo8I0CFZwQoKR02ph3Y3iEKZwFwtjNIkiRJkl7F+E/JMP6TpCLojwBj7nMMqeH+S4n3G/8pKQaASoYRoMIzApSUrNmsBZzpEIV0JWUecQZJkiRJ0nKM/5QM4z9JKpIyLxDxISNAqaH+C+xJK792CiXFAFDJMQJUeEaAkpKzhNOADR2ikC/6LnUGSZIkSdJyjP+UDOM/SSoiI0CpkWrxX5nfOIWSZACoZBkBKjwjQEnhdfIa4DMOUUARHZR52iEkSZIkSS8x/lMyjP8kqcj6I0C41zGkujH+U2oYACp5RoAKzwhQUlgRFwCjHaJw/kBMjzNIkiRJkl5i/KdkGP9JkmoRIHwYI0CpHv6D8Z9SxABQ6dDGzcR8AiNAhWMEKCmMHnYk4giHKKCYUyl7biNJkiRJeul1ovGfkjjueo3/JEkvWRYB3uMY0pD9h6rxn9LFAFDp0c5NRoAKzAhQUuP1cSnQ5BAFE/Mg7XzbISRJkiRJS18nGv8pieOul8c43PhPkrScMi/wvBGgNES1+G8iDzmF0qTZCZQq7dxEFxDxVaDFQRRAfwS4B2XmOYekuupiPyL2dYjCiYk4xRmUCr2M4H+Mqfuv28IYFjOiAb/uuLr/mn2MoNSADWLWrPtrloiImLEN+L2OpBG3oo9Yi6jOP1eIiaABG9CgDTTcx/u7tDPHISRJhXiVaPyn8Med8Z8kaeVOZAFX8GHGcAuwl4NIA2L8p9QyAFT6GAEqPCNASfXXQTMR0xyikHop8/+cQSs0iy2o8mZitgO2JGILYjYCxgPrLP2n1gBG1eW/N5/GXIO02sBft94iIM7I8dGo32eUwd+ziqAKdOT2q5vDKBbn+OvLuxKXchxPOoSkOp0vGf8piePO+E+StHpGgNJgGP8p1QwAlU5GgArPCFBSfW1MK7CDQxTOQkqc7gx6yUy2pYm9iNmTiN3oY/xyf994SlJx3Uw7v8vtV7eIkcCpPswZFVMBA0BJdfl+YvynJI474z9J0sCdyAKm80FGcjNwgINIK/QfIvZgIr91CqWVAaDSywhQ4RkBSqqPCusA5zpEAUXMoJW/OUSB9dLEk+wLfJSIvYBNlx4bkqRlYkpc4AySpJw/2xn/KYnjzvhPkjR4U1jIdA4xApRW6HEi9qTN+E/pVnICpVo7NxHzCWCxYyiQ/ghwY6eQNAyfB9Z3hsKZzyIucoaCmsm2VOhgPn8h4nYijqI//pMkLS/mW7Tya4eQJOX4uc74T0kcd8Z/kqShm8JCFnIIMbc5hvQS4z9lhgGg0s8IUOEZAUoauh5eC0xxiAKKuYDjecIhCqSDEt1MoMIPaeL3wDnAFg4jSat5xoy8+p8kKefPdMZ/Cn/cGf9JkoZvCgtZxKFGgBIAjxOzh/GfssIAUNlgBKjwjAAlDU3MpcBIhyicv7GIGc5QEB2U6OJDbMzPibkB2MVRJGnAbqPML5xBkpTTnwkY/ymJ4874T5JUP1NYyHivBKjCq8V/7fzOKZQVBoDKDiNAhWcEKGlwOnkPMYc4RAHFnM4UFjpEztXCvyPZmIeJuAV4i6NI0iBVvfqfJCm3rwuN/5TEcWf8J0mqvwksYjyHALc6hgrI+E+ZZACobDECVHhGgJIGJiaiiSuAyDEKJuInlOl1iJzr5i1sxA+I+CKwjYNI0pDcwUR+4gySpFz+TMD4T+GPO+M/SVLjTGAR4zgUI0AVy2PGf8oqA0BljxGgwjMClLR6FQ4n5h0OUUAxJxERO0ROXc8YurmEmJ8R8S4HkaRhudAJJEk5fE1o/KckjjvjP0lS4y2LAG9xDBXAY5SM/5RdBoDKJiNAhWcEKGnlrmANIi5yiAKK+SZlvu8QOdXFR1jAH4k5FWhyEEkalnt9zpQk5fA1ofGfkjjujP8kSeHUIsCPYgSofKvFf6087BTKKgNAZZcRoMIzApS0YmM4GdjMIQpnMSVOc4Ycms5IKnyBiJuBTRxEkuog5jxHkCTl7LnN+E9JHHfGf5Kk8IwAlW/Gf8oFA0BlmxGgwjMClLS8HjYETnaIAorooo0/OkTOzGILRvI9YIpjSFLdnjPvp50HHEKSlBvGf0rmuDP+kyQlxwhQ+fQvmnif8Z/ywABQ2WcEqPCMACUtU+UiYG2HKJxnibjQGXKmm4Pp45fAOx1Dkuoo4nxHkCTlhvGfkjnujP8kScnrjwAjvu0YyoF/0cTuHMefnUJ5YACofDACVHhGgJKgizcDn3KIQrqIVh53hlz9eT6VmG8AYx1DkurqR7RynzNIknLB+E/JHHfGf5Kk9JjAIsYywQhQGfdP4z/ljQGg8sMIUOEZAUqeSV0GNDlE4fwbmO4MOdFLExVmEnGJY0hSA0Sc6wiSpFww/lMyx53xnyQpffojQPiWYyiD/gnGf8ofA0DlixGgwqtFgDPYyCmkguniQGL2dogCijidMi84RA5MZyRP8lVgomNIUkP8nFbucgZJUuYZ/ymZ4874T5KUXrXbAX8MI0BlSy3+K/MXp1DeGAAqf4wAFd52NDPXCFAqkAotREx1iEL6Px7lK86QA7NZi5HcScQEx5CkBonoICJ2CElSphn/KZnjzvhPkpR+E1gEXglQmWH8p1wzAFQ+GQEqPCNAqVgmA9s6QwFFfI4Oqg6Rcb2MYDE3Ars5hiQ1zP/Ryu3OIEnKtJiIbq4y/lPg4874T5KUHWUWAxOI+aZjKMUewfhPOWcAqPwyAlR4RoBSEcxkHHCmQxTS7bRxjzNkXC9NPMVXiNjXMSSpoc7z6n+SpEzrj/9gimMo4HFn/CdJyp4yi4n4mBGgUuoR+oz/lH8GgMo3I0CFZwQo5f/s6RxgXYconD6qnOYMGRcT8RQVYg51DElqqN8yj1ucQZKU6dcOxn8Kf9wZ/0mSsssIUOlUi/8m8VenUN4ZACr/jAAVnhGglFddbE3ERIcooJhrmchDDpFx3VxGzLEOIUkNf97soIOqQ0iSMvo8ZvynJI474z9JUvaVWcx4Pgp83TGUAsZ/KhQDQBWDEaDCMwKU8nnmdBkwwiEK5zkiznGGjOviMOAkh5Ckhvsdj/ENZ5AkZZLxn5I57oz/JEn5MYE+xvFJIr7mGEqQ8Z8KxwBQxWEEqPCMAKU86eT9xBzoEIU0jTLznCHTf37fSESPQ0hSABHne/U/SVImGf8pmePO+E+SlD8T6GMsRxgBKiH/osT7jf9UNAaAKhYjQIVnBCjlQQclSkxziEKaxxo+9pk2gzUp0QuMcQxJarg/MZYbnUGSlDnGf0rmuDP+kyTl1wT6iAywlICI/7CAJxxCRWMAqOIxAlR4RoBS1m3CUcBODlFIZ3MkzztDRsVEtDAH2N4xJCmAiPOZQJ9DSJIy97rB+E/hjzvjP0lSvlW4gCqfdwglcJ71NkZyHzMZ5xgqEgNAFZMRoMIzApSyqpcmYs5ziMJ6wQkyrIdPEXOoQ0hSEH/mUW/tI0nKGOM/JXPcGf9JkvKtwgVg/KdE7UQTdxsBqkgMAFVcRoAKzwhQyqLaVWy+5xCFNZXrvXVsJlVYj5jLHEKSAom5yDexJUkZe+4y/lMSx53xnyQp3ypciPGf0qEWAc5ivFOoCAwAVWxGgArPCFDK5hnTqXgluKLalAWc6AyZdDWwnjNIUhCPMJ6vOIMkKTOM/5TMcWf8J0nKt1r8d4ZDKEV2os8IUMVgACgZASo8I0Apa1r5F3ClQxTWacxgM2fIkG4+AHzcISQpmAuZwCJnkCRlgvGfkjnujP8kSfnWxUUY/ymd3mYEqCIwAJTg5RGgL74VihGglDXNTAUec4hCGk0z5ztDRlQYTUynQ0hSMI8wjuucQZKUCcZ/Sua4M/6TJOVbFxcRcbpDKMWMAJV7BoBSv1oEeBhGgArHCFDKkmN5FjjLIQrrCLp5uzNkwkRgC2eQpEAipnr1P0lSJhj/KZnjzvhPkpRvxn/KDiNA5ZoBoPRyRoAKzwhQypJ5XAv8wiEKet4ccxUxkVOk2PWMAT7nEJIU8OzoOeY4gyQp9Yz/lMxxZ/wnScq3Chcb/ylj3kYf9xgBKo8MAKVXMgJUeEaAUlZ0UAVOdojCejcVDnGGFFvAp4ENHEKSgrmEE1ngDJKkVDP+UzLHnfGfJCnfKlwMnOYQyqC30sc9XMO6TqE8MQCUVsQIUOEZAUpZUWYuMbc5REFFXMocRjlECs1gTeBEh5CkYB4HZjmDJCnVjP+UzHFn/CdJyvf5VRdXYfynbHsrLdxtBKg8MQCUVsYIUOEZAUpZEXEKsNghCum1LOQEZ0ihFj4NrO8QkhTMZZR5wRkkSall/KdkjjvjP0lSvs+vKlxJ5M/IlQtvpcUrASo/DAClVTECVHhGgFIWlPk9EV0OUVARn6fCxg6RIjERMcc6hCQF8z+WUHEGSVKqXyMY/yn8cWf8J0nK//mV8Z/y5S1GgMoLA0BpdYwAFZ4RoJQFSzgHeMIhCmktYs51hhTpZm9gK4eQpEBipjGZ5xxCkpTS5ynjPyVx3Bn/SZI8v5KyyQhQuWAAKA2EEaDCMwKU0m4S84m5yCEKKuJYetjJIVLzeLQ6giQF8yQtzHQGSVIq+ea0kjnujP8kSfk+v+rhC55fKedqEWCF9ZxCWWUAKA2UEaDCMwKU0m481wB/dIiCnkdXucwZUqDCesR8yCEkKZCYKzmWZx1CkpTC5yjjPyVx3Bn/SZLyfX7VwxeI+bRjqADeAkaAyi4DQGkwjAAVnhGglGYTWETEaQ5RWLvTxYHOkLCYI4GRDiFJQTxFxNXOIElK4esC4z8lcdwZ/0mS8n5+Nd34TwXzZowAlVEGgNJgGQEqPCNAKc3a+CZwj0MUVMTlTDc+S/gx+KAjSFIwX6DM084gSUoV4z8lc9wZ/0mS8n5+NR043jFUQEaAyiQDQGkojAAVnhGglGYRpwBVhyikrRjBZGdIyPWMAd7tEJIUxDP08QVnkCSlivGfkjnujP8kSXk/vzL+U9EZASpzDACloTICVHhGgFJatfFLYq53iIKKOMsXgQl5kT3x9r+SFMrVTGK+M0iSUsP4T8kcd8Z/kqS8n19djfGfBLUI8F7f/1FWGABKw2EEqPCMAKW0auHzwPMOUUhjgQ5nSECVfR1BkoJ4nhav/idJShHjPyVz3Bn/SZLyfn51NXjHG+lldgQe8L15ZYEBoDRcRoAKzwhQSqNjeRS4zCEKq0wXb3CGwCL2cQRJCmIGx/BfZ5AkpYLxn5I57oz/JEn5Pr+qcA3Gf9KKbE8z9/nevNLOAFCqByNAhWcEKKXR81wKPOIQhdRMxHRnCKh22f3XO4QkNdwLVLncGSRJqWD8p2SOO+M/SVK+z68qXEPEJMeQVmp735tX2hkASvViBKjwjACltDmRBcSc5RCFtSfdfMAZAonZ2REkKYhOJvIfZ5AkpeA1gPGfkjjujP8kSfk+vzL+kwaq9t58hY2dQmlkACjVkxGgkjrRMAKU0uMxvgz8zCEKKmYaHTQ7RBBvdgJJargF4NX/JEmpeK1l/KckjjvjP0lS3s+vZhj/SYOyHXCfEaDSyABQqjcjQCVxomEEKKVHB1UiTgBixyikN7Ax7c4QQMQ2jiBJDddDmXnOIElKlPGfkjnujP8kSXk/v5oBTHQMadCMAJVKBoBSIxgBKokTDSNAKT3a+CHwDYcorPO4hnWdoeG2cgJJaqiFlLjMGSRJiTL+UzLHnfGfJCnf51c9zMT4TxqO7cDbAStdDAClRjECVBInGkaAUpqcCixyhkIaRwufd4aG28IJJKmhrqWVfzmDJCkxxn9K5rgz/pMk5fv8qoeZxN7FRqqDbTECVIoYAEqNZASo8IwApbQo8xfgaocorOPp9ha1DbaBE0hSwyymyqXOIElKjPGfkjnujP8kSfk+vzL+k+qtFgHOZhOnUNIMAKVGMwJUeEaAUlqM4ALgfw5RSC3E3jaxYWawJjDaISSpQWKuYyJ/dwhJUkLPQ8Z/SuK4M/6TJOVXByUqXGv8JzXEtizhPiNAJc0AUArBCFDhGQFKaXA0TwEdDlFYH6bCPs7QEGs6gSQ1zGKqXOIMkqREGP8pmePO+E+SlF8dlNiYa4k4yjGkhjECVOIMAKVQjAAVnhGglAbj6AIecojCupIOmp2hzkYy0hEkqWG+zCT+6gySpOCM/5TMcWf8J0nKr/74Dz7lGFLDbcsSbwes5BgASiEZASo8I0ApaRPoI+YUhyisN7AxxzhDnS1hhCNIUkP0EXOxM0iSgjP+UzLHnfGfJCm/emky/pOC28YIUEkxAJRCMwJUeEaAUvLf++8g4jsOUVjnU2EdZ6ijJs+jJKlBvko7f3IGSVJQxn9K5rgz/pMk5VcvTTxl/CclpBYBdvIap1BIBoBSEowAFZ4RoJS0mJOAxQ5RSBsQcboz1PVVzEJHkKS6qxIx1RkkSYFfKxv/KYnjzvhPkpRf/fFfzJGOISVmG0pGgArLAFBKihGgwjMClJJU5vdAxSEKKuYzzOR1DlG3VzEvOIIk1d2NtPFbZ5AkBXydZPynJI474z9JUn710sR85hj/SamwtRGgQjIAlJJkBKjwjAClJPVxNvCEQxTSSJq9qlLdHMXTwCKHkKS6iYELnUGSFPCZx/hPSRx3xn+SpPzqj//gCMeQUsMIUMEYAEpJMwJUeEaAUlImMR+4wCEKKuZQutjVIeogIgb+6xCSVLfvqzdT5jcOIUkK9NrI+E9JHHfGf5Kk/DL+k9LMCFBBGABKaWAEqPCMAKXkzAD+4AwFFXEFHZ6D18m/nECS6sKr/0mSQj7rGP8piePO+E+SlF+1+O86jP+kNKtFgD1s6hRqFN98lNLCCFDhGQFKSSizmJhTHKKwdmITjnSGOoj5syNIUh1E3EIbv3QISVKAc3jjPyVx3Bn/SZLya1n890nHkFJva6o8SCdbOoUawQBQShMjQIVnBCgl8/3+VuAehyiomAuZwZoOMUyRAaAk1UWVCxxBkhTgdZDxn5I47oz/JEn5ZfwnZdGWS28HvKVTqN4MAKW0MQJUeEaAUhJiTvB7fWFtQgunOsOw/wz92hEkadhup52fOYMkqcHn7sZ/SuK4M/6TJOVXL008yRcx/pOyaEtK3G8EqHozAJTSyAhQ4RkBSuG/1/+OiFkOUVAxJzGLLRxiWBv+whEkaZiqXOwIkqQGn7cb/ymJ4874T5KUX/3xX8ThjiFl1haUuJ8eXusUqhcDQCmtjAAVnhGgFFof5wBPO0QhrWF0MUwT+TvwH4eQpCG7i4n8wBkkSQ1j/KdkjjvjP0lSftVu+3u98Z+UC1tQZa4RoOrFAFBKMyNAhWcEKIU0kf8AFzpEQcV8nArvdYhhuccJJGmISlzgCJKkBr7eMf5TEsed8Z8kKb/64z/4hGNIuWEEqLoxAJTSzghQ4RkBSiGN4wvAnxyikCJgGjGRUwxRzJ2OIElD+v55H6086BCSpAY9zxj/KYnjzvhPkpRfvTTxFF/C+E/Koy2oejtgDZ8BoJQFRoAKzwhQCmUCi4g5zSEK6510c5gzDFETdwKxQ0jSIMWc7wiSpAY9xxj/KYnjzvhPkpRf/fFf7M+RpRzb3AhQw2UAKGWFEaDCMwKUwn2P/wbeyrTIpnI9Y5xhCFp5HPilQ0jSoPyQidzvDJKkujP+UzLHnfGfJCm/jP+kIqlFgDN5nVNoKAwApSwxAlR4RoBSKFU+B1QdopA2ZQEnOsOQfccJJGkQYjocQZLUgOcX4z8lcdwZ/0mS8qtCC/PpNf6TCmVzmphrBKihMACUssYIUOEZAUohTOT/gOscorBOYwabOcMQ9PElvA2wJA1MzI9p526HkCTV+fnF+E9JHHfGf5Kk/KrQQswNwEccQyocI0ANiQGglEVGgArPCFAKc2Z2BvCMQxTSaJo53xmGYBJ/IOb7DiFJAzrXOM8RJEl1ZfynZI474z9JUn71x38RBzuGVFi1CLDCVk6hgTIAlLLKCFDhGQFKjdbK48BUhyisI+jm7c4wpFc1PY4gSav1C1q5wxkkSXVj/KdkjjvjP0lSflVoAXqN/yQBm4MRoAbOAFDKMiNAhWcEKDXaCK4A/u4QBT03j/kCMZFTDNJz3ATMdwhJWoWYDiJvmS5JqtvzivGfkjjujP8kSfnVywigFzjIMSQttRlGgBogA0Ap64wAFZ4RoNRIR/MiMac5RGHtQjeHOsMgncgCIr7sEJK0Uv9HmducQZJUF8Z/Sua4M/6TJOVXLyOYzw0Y/0l6NSNADYgBoJQHRoAKzwhQauz39RuIedAhCmsqcxjlDIMUMw1Y6BCStMLvkRd49T9JUp2eU4z/lMRxZ/wnScqvXkbwlFf+k7RKtQhwFq93Cq2MAaCUF0aACs8IUGqkiM8AVYcopNeykBOcYZDKPELMbIeQpFf5LY/xLWeQJA2b8Z+SOe6M/yRJ+dUf/8Uc6BiSVmMz+owAtXIGgFKeGAEqPCNAqVHK/AL4ikMUVMQZ9LChQwxSzEXAiw4hScs9p5xHhx8qkCQN+1zb+E9JHHfGf5Kk/Krd9vdG4z9Jg7CpEaBWxgBQyhsjQIVnBCg1SpXTgecdopDWpo/znWGQJvJvYioOIUkveZhHuckZJEnDYvynZI474z9JUn71x3/wYceQNEhGgFohA0Apj4wAFd52NHOfEaBUZxP5N3CZQxRUxDF08WaHGKQ+LgGedQhJAmLO9+p/kqRhPpcY/ymJ4874T5KUX8Z/koZvU/p4kB62dwr1MwCU8soIUOFtbwQoNcDzXAo84hCF1ETElc4wSJN5DDjTISSJPzGeXmeQJA2Z8Z+SOe6M/yRJ+WX8J6l+NqLKfUaA6mcAKOWZEaDCMwKU6u1EFhDzeYcorN3p4kBnGKR5XAP80CEkFVwHE+hzBknSkMREVLgS4z+FPe6M/yRJ+VWL/27C+E9S/dQiwC7e4BQyAJTyzghQ4RkBSvVW5itE/MAhCiricqYz0iEGoXa7y3ZgsWNIKqg/Mc+r/0mShqg//os4wTEU8Lgz/pMk5dey+O9DjiGpzjYiMgKUAaBUDEaACs8IUKqniJiIk4HYMQppK0Yw2RkGqcxvgMscQlIhxZznm+eSpCE+hxj/KYnjzvhPkpRfvYzgSW7G+E9S42xoBCgDQKkojAAVnhGgVE+t/Bi4wSEKKuIsKqznEIM0gvOBXzqEpIL5E+P5mjNIkgbN+E/JHHfGf5Kk/JrOSJ7kZiI+6BiSGswIsOAMAKUiMQJUeEaAUn3P3E4BXnCIQhoLdDjDIB3NizRxEPCEY0gqjJgLmECfQ0iSBvn8YfynJI474z9JUn5NZyQjuMn4T1JAtQiwmx2congMAKWiMQJUeEaAUr208i/gSoco8LN4J290hkE6jn8QcRTeQltSMfyFx/iqM0iSBsX4T8kcd8Z/kqT8ms5IRnrlP0mJ2JCYe40Ai8cAUCoiI0CFZwQo1csSLgEedYhCaqLEVc4wBG3cRswlDiEp9yIu8E10SdKgGP8pmePO+E+SlF/98R8c4BiSErIhsVcCLBoDQKmojAAVnhGgVA+TeY6YMx2isPakmw84wxCM5yzgLoeQlGN/5VG+7AySpAEz/lMyx53xnyQpv65gDUZxK8Z/kpK3gRFgsRgASkVmBKjwjACleniMLwI/c4iCirmCCi0OMUgT6AMOJuIHjiEplyIu9I10SdIgXlcY/ymJ4874T5KUX1ewBmO4hZi9HUNSStQiwE7e6BT5ZwAoFZ0RoMIzApSGq4Pq0jdpYscopO2AsjMMQZkXaOGDwK8cQ1LO/IOxXv1PkjRAxn9K5rgz/pMk5Vd//Ad7OYaklNmAEvcaAeafAaAkI0AlwQhQGq42fgh8wyEK6zyuYV1nGIKjeYpm9gf+5hiScuQCJrDIGSRJq2X8p2SOO+M/SVJ+VRht/Ccp5YwAC8AAUFKNEaDCMwKUhquPzwELHaKQxtHCmc4wRMfyKDH7Av92DEk58A/gi84gSVot4z8lc9wZ/0mS8qvCaDD+k5QJtQiwwpucIp8MACUt085NwCcwAlQ4RoDScEzir8AXHKKwJtPNNs4w5POeP9HMO4DfOIakjLuIMoudQZK0SsZ/SsaNxn+SpNxaFv/t6RiSMmIDMALMKwNAScsrcyNGgArLCFAajmYuAB5ziEJqIeYyZxiGY3mUPnYDvu8YkjLqn4zjOmeQJK2S8Z+ScSPz+ITxnyQplyqMJuZWjP8kZc/6GAHmkgGgpFczAlR4RoDSUB3Ls8A5DlFYH6bCPs4wDJOYD+xLzG2OISlzYi5iAoscQpK0iucK4z8lwfhPkpRf/fFfxB6OISmjjABzyABQ0ooZASo8I0BpqMYxG/i1QxTWZfTS5AzDOu95gcc4GLgKiB1EUkb8k0XMcQZJ0koZ/ykZxn+SpPwy/pOUH7UIsIcdnSIfDAAlrZwRoMKrRYCxEaA0KBPoAz7jEIW1I/M51hmGqYMllPksEQcBTzqIpNSLuIQpLHQISdIKGf8pGcZ/kqT8qjAauM34T1KOrE+Ve4wA88EAUNKqlbmRiCMwAlQ42xNxhjNIg/5+PRe4xSEK63wqrOMMddDGLcBbgR85hqQUm8dzXv1PkrQSkfGfEmH8J0nKr/74D3Z3DEk5sz5V7qeHnZwi2wwAJa1eG1/HKwEqrGYnkIYg4hRgkUMU0gZgPF03ZR5hHO8HLvP8R1IqxVzMiSxwCEnSSp4nDjD+U2BfZxyHGf9JknLJ+E9JiPgNEDuEAhlHlbuNALPNAFDSwHg7YElKvzb+CMxwiML6DLN4vTPUyQQWUeZzlNgJrwYoKV3m8QKznEGStAprOIECupF5HMEE+pxCkpQ71zMG4z+FFvEdXuTtRJSBqoMokFoE2MXOTpFNBoCSBs4IUJLSbwTnAf9ziII++lUudoY6a+XXtPEeYj7lny1JKXGJV/+TJEkp4W1/JUn5dT1jeNH4T8Hdzot8hCkspI0eItoxAlQ444i4ywgwmwwAJQ2OEaAkpdvRPAV0OERBxRxKF7s6RJ1FxLRzPVV2ADqBhY4iKSHzeJ4eZ5AkSSlg/CdJyq/++C/m/Y6hgG5nIYcw5WU/f26jB7wSoIIaR+SVALPIAFDS4BkBSlLaT827gIccoqAirqLD8/yGmMh/KDOJElsQMRW8Apek4C716n+SJCkFjP8kSfll/KdkvDr+61dmFkaACmssEXfTzdudIjt8Y1DS0BgBSlJ6TaCPmFMcorDeyiYc6QwN1MrjtHEazbwemA487yiSAngc6HYGSZKUMOM/SVJ+Xc8YFnC78Z8C+wZw8Arjv35lZhHThhGgwhlLzF1GgNlhAChp6IwAJSm92rkD+K5DFFTMJUxnbYdosGN5lDIn8DzrAxOAe4DYYSQ16Hv7pZR5wSEkSVKCjP8kSfnVH//Bbo6hgG4GPk6Zxav9J9uZbQSowIwAM8QAUNLwGAFKUnrFnOz358LakFFeBTKYE1lAmRspszdNbEPEBcAfHEZSHf2HiC5nkCRJCTL+kyTlVy3++w7GfwrrZuCwAcV//dqZTUQrRoAKpxYBdvIOp0g3A0BJw2cEKEnp1M7vwFigsGJOYhZbOERgx/Fn2jiLMtuxhI2pXRmwG/iX40gasojLvPqfJElKkPGfJCm/prM2L3APsKtjKJiImxhs/NevjWuNABXYWErcaQSYbs1OIKkuytxIBYCv+r1FklJkMR20cDgwzjEKZw2qXEwt0lcSJvMYcCNwIzER3WxLzBuI2AbYbun/tgXG5vCr7wOeGeS/UwWeHuS/EwNPDeH3N38I/87TDPaHahHPENM3yP/Os0SreWM15mBgG/+QFcZ/GUWnM0iSpIQY/0mS8ms6azOCO4l4l2MomIibiPnEkOK/fm1cSzcQ04MX/lIYYylxF53sw0R+4hzpY6QjqX6MACUpfY7nCSqcB1zpGAUU83G6uJp2fuQYCYuIgd8v/d/ypjOSkYwnYjwRowb8a1ZZRB/PD/KYWEzEc4P6d0ayhGN51gcxJTrZgBLHO0ShvpdfzpGD/LMuSZJUH8Z/kqT8qrAOMXcY/ymoesR//YwAFd46RoDpZaAjqb6MACUpjWYA7dSuNKZiiYi4kphdlgZoSqMpLATmLf2ftGolTgbGOERhPEELM51BkiQlwPhPkpRfxn9KQsRNPMphdT2/auNauoiJmIURoMKoRYAV9qXM/3OO9PAbgKT6K3MjtdsN+sMhSUrH9+XFxJziEIX1Tro5zBmkHLiGdakF3SqOaV6BU5IkJcD4T5KUXxXWAW/7qwTOr+od//VrZw4xxwFVZ1Ygte+jFd7pFOlhACipMYwAJSld2rkVuMshCmsq13vFMCnzWjgZWMshCuMJmpnhDJIkKTDjP0lSfvXHfxitKGfnV7UI8JNAn3MrECPAlDEAlNQ4RoCSlC4xn/V7cmFtygJOdAYpw2pX/5vsEIVyhVf/kyRJgRn/SZLyy/hPSYjpDXZ+1c7XiIwAFVTt+2qPV1RNAwNASY1lBChJ6dHO74DZDlFYpzGDzZxByqgWTsSr/xXJU4xgpjNIkqSAjP8kSflVYR0i7sL4TyHF9PIYhwc9v2rj60sjQM/pFMo6VLnDCDB5BoCSGs8IUJLSo4WzgKcdopBG08z5ziBl0BzGApMcokBiLudonnIISZIUiPGfJCm/5jCWiLuIeYdjKJgk4r9+tQjwCHxvXuGsQ9UrASbNAFBSGEaAkpQOx/Bf4CKHKKwj6ObtziBlzCJOBMY6RGE8zUiucQZJkhSI8Z8kKb/mMJbF3Gn8p8BuSCz+69fG14m9EqCCWpsqd9LFLk6RDANASeEYAUpSOozjKuBPDlHQ8/+YLxATOYWUERXWAT7tEAUScYVX/5MkSYEY/0mS8msOY1nklf8U3A3M45OpOL9q5wYjQAW2NhF3081uThGeAaCksIwAJSl5E1hExP9v777j5CoL/Y9/zmwSmoVwLYAKer1iR3/Xe73Xe0V6UylXNApoJJCdmU0gBAQEpCy9d5LsboAgTUgA703AQpXQFAWRIlUglCQESEggpO48vz9mQwqbZMvMmVM+79fLl2HrzPfMznmeme95nqMMIre+QQffNwYpNQ7B1f/yZC5LucgYJElSDCz/SZKya1n5D3dDUaySU/5bpsx1ROyL780rPhsQuNkSYPwsAEqKnyVASWq8IjcAtxlEbp3BBNY1BinhLuQDwCiDyJXzGcEcY5AkSXVm+U+SlF2W/9QY1yau/LdMkYmWABUzS4ANYAFQUmNYApSkxos4HKgYRC59isWMNgYp4dbhYGCwQeTGPDq5wBgkSVKdWf6TJGWX5T81xrXM4CeJHl9ZAlT8qiXAcWxjFPGwACipcSwBSlKjJ3wPA5cbRG4dTTubGIOUUGN4H67+lzcXuPqfJEmqM8t/kqTsqpb/bsXyn+J1LYMTuvLfqiwBKn4bUOAmS4DxsAAoqbEsAUpSo0eDRwPzDCKX3k/gBGOQEmoAo4APGURuzKOJ841BkiTVkeU/SVJ2jWVwV/nv3wxDsYn4FYP5MUPoTM1tLjIR35tXvCwBxsQCoKTGswQoSY3TzKvAmQaRUxEHMJ6vGYSUMFewAbhNd85cxHBmG4MkSaoTy3+SpOway2CauAXLf4rXBKanrPy3jO/NK37VEmA72xpF/VgAlORAQ5LybhDnAC8YRE7nAxXOMgYpYRZwEPBhg8iNtxnIBcYgSZLqxPKfJCm7quU/V/5T3CYwg+G0UkntPSgxicDe+N684rMBWAKsJwuAkpI10LAEKEnxG8ZCIo4yiNzaljb2MAYpIaqr/x1iEDkSuIj9ec0gJElSHVj+kyRl1/LynzucKE6Xpb78t0yZ67tKgEs8rIrJ+lgCrBsLgJKSxRKgJDVGkWuBewwipyLO4ULWMQgpARYwAviIQeTGfAZxnjFIkqQ6sPwnScquy/gwTfwBy3+K+5E3g+ZMlP+WqZYA98ESoOJTLQGOZzujqC0LgJKSxxKgJDXKwZChiat649MMYqQxSA3WzvrAYQaRIxEXu/qfJEmqA8t/kqTsuowPs4TbgS0NQ7E+8rJW/lumzPVErgSoWK1PhSmWAGvLAqCkZLIEKEmNeO59CLjaIHIq4lja+ZBBSA3Vgqv/5cl8OjnXGCRJUo1Z/pMkZdfy8t+XDUOxPvKyWv5bpsgNlgAVM0uANWYBUFJyWQKUpPhVOAqYbxC5tCHQagxSg0xgXeBQg8iVsbQwyxgkSVINWf6TJGWX5T81QsSlmS//LWMJUPGzBFhDFgAlJZslQEmKVwuvAGcbRG6VGceXjEFqgMWUgU0NIjfeoeL5VpIk1ZTlP0lSdln+UyNEXMp0irko/y1T5AYCP8ISoOJTLQG2sb1R9I8FQEnJZwlQkuI1nzOAFw0il5oocL4xSDGrrv53mEHkyjhX/5MkSTVk+U+SlOUZ9Ecs/6kBLsld+W+ZMjcC/wMs8mGgmKxPxGRLgP1jAVBSOlgClKT4HMoCIo4xiNzang52NQYpRotoBj5mELmxkAGcawySJKlGLP9JkrJrHB+hYPlPsbuEGZRyWf5bpsTNwF5YAlR8qiXADnYwir6xACgpTQMNS4CSFJdmriLiAYPIqcC5tDPQIKQYXMg6RBxhELkyjgOYbgySJKkGLP9JkrI8e15W/vuSYSg2gfG5L/8tYwlQ8VufYAmwrywASkrbQMMSoCTFISJQYTQQDCOXPgeUjEGKwToMBz5uELmxkAGcbQySJKkGLP9JkrLL8p8aITCemZQt/62gxM0EvoclQMVnPUuAfWMBUFIaBxqWACUpDmXuByYaRG6dyMX8kzFIdVRdafNwg8iRQLur/0mSpBqw/CdJyq5q+e8OLP8pToHxlFz5r1tlfmMJUDGrlgDb2NEoes4CoKR0sgQoSfFYyuHAOwaRS4MZyC+MQaqjwAHA5gaRGwsJnGUMkiSpnyz/SZKyazwf7Sr/fdEwFKMOSpSI3BFptcr8hoj/wRKg4rMeEVNo5ztG0TMWACWllyVASaq/kbwEnGcQuXUgHWxhDFIdtDOQiJ8bRI5EjKeFVwxCkiT1g+U/SVJ2jeejVLgdy3+KVwdFypb/eqDIb7tKgAsNQzFZB7iBDr5rFGtnAVBSulkClKT6W8rpwAyDyKWBrlYl1c0w4JPGkBuLiDjTGCRJUj9Y/pMkZVe1/OfKf4qb5b/eqpYAv4clQMVnHQLXWwJcOwuAktLPEqAk1ddI3ibiGIPIrd1pZydjkGqonYHAkQaRK5fQzMvGIEmS+sjynyQpu5aX/75gGIpRu+W/PrIEqPhZAuwBC4CSssESoCTV13QuB/5iELl1Hq0MMAapRgJDgU8ZRG4spsnVVCVJUp9Z/pMkZZflPzVGO0VaLP/1Q5HfEtwOWLFah8ANtLGbUXTPAqCk7LAEKEn100qFCqPBCXFOfYFN2N8YpBqYSBMRPzeIXLmU4UwzBkmS1AeW/yRJ2WX5T40Q0Wb5r0bK/M4SoGI2iIjrLQF2zwKgpGyxBChJ9dPCvcCvDSK3TqKdDxqD1E9v8hPgMwaRG0uocKYxSJKkPrD8J0nKrjFsbPlPDXA+zYyw/FdDlgAVP0uAq2EBUFL2WAKUpPrp5HBgkUHk0keAo41B6oeJNBE4yiBy5TJaeMEYJElSL1n+kyRl1xg2ZoDlP8XufEocYvmvDsr8jog9sQSo+FRLgB3sbhTLWQCUlE2WACWpPkbwHHChQeTWaNpcuUzqs9nsC2xhELmxhAJnGIMkSeoly3+SpOxaXv77vGEoRudR4hBjqKMiv7cEqJgNIjDJEuByFgAlZZclQEmqjwGcBMw0iJxOqCJOMwapDybSROQqmrkSuJxmnjcISZLUC5b/JEnZNZ6PM4C7sfyneJ1HiUONIQZFfg/sgSVAxccS4AosAErKNkuAklR7B/AW0GoQubUXHWxtDFIvvcmPgM8aRG4socnCtCRJ6hXLf5Kk7BrPx6lwJ/AvhqHYRJxr+S9mJW6hWgJcYBiKSbUE2MYeeQ/CAqCkPAw0LAFKUq0N5hLgEYPIqcD5tDqXkHqslQKBIw0iRyKucPU/SZLUC5b/JEnZNYZPWP5T7CLOpcjPDKIBqiXAPbEEqPgMImJi3kuAvmknKS8DDUuAklRLQ+ikwCEGkVtfZVOGGoPUQ5syBPiSQeRGJxXOMAZJktRDlv8kSdk1hk8wwPKfYmb5r/FK3EJwJUDFKvclQAuAkvI00LAEKEm11MwdwBSDyKnA6VzIBwxCWovq6n9HG0SuXEGZZ4xBkiT1gOU/SVJ2LS//fdowFKNzLP8lRJlbLQEqZtUSYDt75vHOWwCUlC+WACWp1g4BFhlDLn2UdTncGKS12JTvA182iNzoJOJ0Y5AkST1g+U+SlF2W/9QY51DiMGNIkDK3ErErMN8wFJNBwHV5LAFaAJSUP5YAJamWz6n/AMYZRE4FfsYlbG4Q0mr/RiICvzCIXLmKIk8bgyRJWgvLf5Kk7LL8p0YInG35L6GK3EXg21gCVHwGQf5WArQAKCmfLAFKUu10ciLwukHk0npUOM0YpNUYz/eALQ0iR2fETp8TJUnSWln+kyRlVzubWf5T7AJnU3a3mkQrM7WrBPi2YSgmA4GJdPA/ebnDFgAl5ZclQEmqjRHMAU4wiJwK/Ih2vmkQ0nv+NiICxxpErlzDCJ4yBkmStAaW/yRJ2dXOZmD5T7E7y/JfSlRLgN/BEqDiM5DAdXkpAVoAlJRvlgAlqTZm0AbkcsheAAAylElEQVQ8ZhC5FAFnE4iMQlrBePYEvmIQudFJJ6cYgyRJWgPLf5Kk7Fpe/vtnw1CMzqLEEcaQImWmUnAlQMWqWgJs43tZv6MWACXJEqAk9V8rS4k4xCBy6z8Yzz7GIK0gcLQh5Op4X+vqf5IkaQ0s/0mSssvynxrjTMt/KdXM3ZYAFbOBREykjb2zfCctAEoSWAKUpFoochvwO4PIqcAZXMEGBiEBHewO/JtB5EaFwOnGIEmSVsPynyQpu6rlvz9g+U/xOpMSPzeGFLMEqPg1EXFllkuAFgAlaRlLgJJUi9HlocASg8ilj7GQnxmDBASOMYQcibiOFh4zCEmS1A3Lf5Kk7LqEzamW/z5lGIpNxBmW/zKimbuBXbEEqPhUS4Dt2dzRygKgJK2oxCQi9sUSoCT1dcL2BNBhEDkVOJIxfMIglGvtfAf4d4PIjQqdnGoMkiTpPSKut/wnScqsS9icTu7E8p/iHV+dQZEjDSJDStyDJUDFqwm4IoslQAuAkrSqIhMtAUpSv4bOxwFvGEQurccATjIG5VrEcYaQK5Nc/U+SJHUzJrye6ext+U+SlEmW/9SY8ZXlv6xaXgJ8yzAUk0yWAC0ASlJ3LAFKUt8NZzZwikHk1k/ocPUz5VQHuxL4ukHkRvB8J0mS3sPynyQpyyz/qTHjK8t/WVctAX4bS4CKT7UE2MG+WblDFgAlaXUsAUpSf1wMPG0MuVQgcAGByCiUO4GjDSFXrqfEo8YgSZLeZflPkpRl1fLfH7D8p3i1Wv7LiRL3UHElQMWqicAvs1ICtAAoSWtiCVCS+jpRW0LE4QaRW9+gg+8bg3KlnZ2AbxpEbgQKnGwMkiTpXZb/JElZNo5PdpX/PmkYilErJU4whhxp4V5LgIpZtQTYxo/TfkcsAErS2lgClKS+Pn9OBm4xiNw6gwmsawzKjcAxhpArN9LMI8YgSZIAy3+SpGwbxycpcCeW/xTv+Op4y385ZQlQ8Wsi4vK0lwAtAEpST1gClKS+CRzic2dufYrFjDYG5UIHOxCxlUHk6OwWOMkYJEkSYPlPkpRtbXyGAndj+U/xjq+Op8iJBpFjLdxLxC5YAlR8Ul8CtAAoST1lCVCSeq/M34HLDCK3jqadTYxBmRc41hBydbz/lzJ/MwhJkmT5T5KUaW18hog7gY8bhmJ0nOU/AVDkvq4S4DzDUEyqJcAOfpLGG28BUJJ6N9CwBChJvVXhWGCuQeTS+wlu06CMa2db4FsGkRsBONUYJEmS5T9JUqYtL/99zDAUo+MoueuCVlAtAe6KJUDFp4nAhDSWAC0ASlLvBxqWACWpN1qYhWWJ/Io4gPF8zSCU4cf4cYaQq+M9mTJ/MQhJknI/JrD8J0nKLst/aoTAsZb/1K0i9xFcCVCxqpYA2xiaphttAVCS+jbQsAQoSb0xmPOBZwwilwpUOMsYlEnj+G8C2xhErpxiBJIk5ZzlP0lSlln+UyMEjqXMyQah1SpzvyVAxayJiMvSVAK0AChJfWUJUJJ6bgiLiTjKIHJrW9rYwxiUOREnGkKuTKHIn41BkqRcj/8s/0mSsquDLSz/qQGOsfynHilzPwW2A+YYhmKSqhKgBUBJ6g9LgJLUm+fMG4C7DCKnIs7hQtYxCGVGG98gYjuDyNXzmNvQSJKU77GA5T9JUnZ1sAXB8p9idwwld1tQLzTzIAV2xBKg4lMtAbbz06TfUAuAktRflgAlqeciRgMVg8ilTzOIkcagzChwgiHkys2u/idJUq7nspb/JEnZtbz8t6lhKEaW/9Q3lgAVvyZIfgnQAqAk1YIlQEnq6fPlw8AvDSKnIo6lnQ8ZhFJvPP9JYEeDyJGK2z1LkpTjeYzlP0lSdo3ls5b/1AC/sPynflleApxtGIpJgYSXAC0ASlKtWAKUpJ6OQI8C5hlELm0ItBqDUq/Tx3HO/JYWHjAGSZJyyPKfJCnLxvJZmrgDy3+K1y8ocaoxqN+aeRAsASpW1RJgB/sl9cZJkmrFEqAk9WRS9iqBswwit8qM40vGoNQaz9eI2MkgcqTiFemSJOWS5T9JUpZZ/lNjxldHW/5TTZV4CEuAileBwGW0UU7aDRvgsZGkGisykQ4gcLXPs5K0Gu9wDhswHNjcMHKniYizGcveRqFUCpwIRAaRG7fQwr3GIElSzlj+kyRlWbX8dyewiWEoxvHV0RQ5zSBUcyUeop0dgVuBjQxEsTyjRYylDSjTlpQbZTFFkurBEqAkrdmhLKCDIwn8yjByOTXamSavyFNKBSPImZOMQJKk3M1XLP9JkrKrnc8Bd2D5T/E6iiKnG4PqpsRDjGMHCtyGJUDFNXOMGEs7ESXGJeEGuQWwJNWL2wFL0po1cx1wj0FIkhIp4lZKnqckScrZ+d/ynyQpuyz/qTGOomT5TzFo4a9U2AF4wzAU2wwSxtBOSxJujAVASaonS4CStKZhcQAOBiqGIUlK4HnK1f8kScrXud/ynyQpuyz/qRECR1r+U6yqJcAdsQSoOGeSCSkBWgCUpHqzBChJq1fiIeAag5AkJcztNHO3MUiSlBOW/yRJWWb5T/ELRIymzBlGodi18FciVwJUzDNKGEMHIxp5IywASlIcLAFK0upVOBKYbxCSpMQInGgIkiTlhOU/SVKWVct/d2L5T/EJRBxCkQuMQg1T5GFLgIp9Zhm4uJElQAuAkhTfQMMSoCR1p4VXgLMNQpKUEHdSZqoxSJKUA5b/JElZNp7PUy3/bWwYikkARlv+UyJYAlQjZpgNLAFaAJSkeAcalgAlqTvzOQN40SAkSQ0XcYIhSJKUi3O+5T9JUnaN5/NUuAPLf4pPtfxX4kKjUGJYAlQjZpqBi2lnZNy/2AKgJMU/0LAEKEmrOpQFBI41CElSQ0XcS5G7DEKSpMyf8y3/SZKyazxbUmEqlv8Un0DgYMt/SqTlJcDXDUOxzTjhorhLgBYAJakxAw1LgJK0qhJXEvGAQUiSGsYyuiRJ2Wf5T5KUZW18hQq3Ax8yDMWkWv4rc5FRKLGKPEywBKiYZ57VEuCBcf1CC4CS1LiBhiVASVp5KByoMJrqVgGSJMXtPkrcaQySJGV63mn5T5KUXW18hYjbsPyn+ARglOU/pUKZv1kCVOwzULgwrhKgBUBJaiRLgJK06gTsfmCiQUiSYhc4zhAkScowy3+SpCyz/Kf4Vct/JS42CqWGJUA1YiYKF9LGQfX+RRYAJanRLAFK0sqWcjjwjkFIkmJ0P2VuNwZJkjLK8p8kKcs6+KrlP8UsAAdZ/lMqlfkbBbbHEqDinJFGXFDvEqAFQElKAkuAkrTcSF4CzjcISVJsAscbgiRJGWX5T5KUZR18lWD5T7FaVv4bYxRKrWYeocC3gJmGodhmpnUuAVoAlKSksAQoScst5TRghkFIkuou8EfK3GoQkiRlkOU/SVKWLS///ZNhKCaBiAMt/ykTmnmCAtthCVBxzlAjLqCdUfX44RYAJSlJLAFKUtVI3iZwrEFIkuquQKshSJKUQZb/JElZZvlP8auW/4qMNQplhiVANWKmCufXowRoAVCSksYSoCRVzWQC8KBBSJLq6EGaucUYJEnKGMt/kqQss/yn+Fn+U3Y18wSwLZYAFeeMFc6ng4Nr+UMtAEpSElkClCRopUKFwwxCklQ3EccSEQxCkqRMnd8t/0mSsms8XyNwB5b/FJ8KESXLf8q0Ek9SYUdglmEotplr4LxalgAtAEpSUhWZCPwU6DQMSbnVwh+AGw1CklQHD9LM74xBkqQMsfwnScqyDr5KhVuBwYahmFSAEkXGG4Uyr4XHiNgOS4CKcwYbOI92DqzFD7MAKElJVuIaIvbBlQAl5VknhwOLDEKSVGPHu/qfJEkZEpho+U+SlFntfJrAb7H8pzhHV3AgJS4xCuVGkceBrYEZhqGYRMCFdLBff3+QBUBJSv5Aw+2AJeXbCJ4DLjQISVINPUSR3xiDJEkZEXE9M9nX8p8kKZPG8RHgN8DGhqGYBAIjKDHOKJQ7JZ6kk22xBKg4Z7SBDjrYtT8/xAKgJKWBJUBJeTeAk4CZBiFJqolAq6v/SZKUEW77K0nKsgmsSxNTgC0MQzGplv/KtBmFcmsET3WVAKcbhmIykMBE2vlyX3+ABUBJSgtLgJLy7ADeInCCQUiSauCvlLjJGCRJygDLf5KkrFvMGAJfNwjFJAAtlv8klpUAt8MSoOLzPmAy7XyoL99sAVCS0sQSoKQ824jxwKMGIUnql8AJrv4nSVIGWP6TJGVdO6OB/Q1CMakQsT8l2o1C6jKCpyiwA+5Qpfh8kohraO19n88CoCSljSVASXk1hE4KjDYISVI/PMZMphiDJEkpZ/lPkpR17fwrcIZBKCYVYH+KXG4U0iqaeYKIrXElQMUlsCObcERvv80CoCSlkSVASfmdaN1BcNtGSVIfRRxHKxWDkCQp1edzy3+SpGxrZ33gamCQYSgG1fJfiV8ahbQaRZ4mYlssASo+J9HOf/TmGywASlJ6BxqWACXl0wAOARYbhCSplx5nOv9nDJIkpZjlP0lSPpwJfM4YFINOAsMs/0k9UORpOtkOmGEYisEA4AomsG5Pv8ECoCSle6BhCVBS/gznWWCsQUiSeiXieFf/kyQp1edyy3+SpOwbx9eBskEoBp0E9qfMFUYh9dAIniJiG+AVw1AMtmAxR/f0iy0ASlLaWQKUlEednAi8bhCSpB56nOn82hgkSUopy3+SpDxoZQAF2oEmw1CdWf6T+qrI0wS2xRKg4nEUbXylJ19oAVCSsjHQsAQoKV9GMIfAiQYhSeqhE1z9T5KklLL8J0nKi004CPiqQajOOokYZvlP6ocyz1gCVEwGUOD8nnyhBUBJygpLgJLyZibjgMcNQpK0Fn9nBjcYgyRJKWT5T5KUFxPYEPiFQajOquW/IlcahdRPlgAVl8A2tPHttX2ZBUBJyhJLgJLypJWlBI4wCEnSGgVOdPU/SZJSyPKfJClPFnM08E8GoTrqBIZa/pNqyBKg4psfn8lEmtb0JRYAJSlrLAFKytfk6jfA7wxCkrQaTzCTScYgSVLKWP6TJOXJOD4CjDQI1VEngf0ocY1RSDVW5hkqfBN4wTBUR19kNkPW9AUWACUpiywBSsqTAocCSwxCkvQegZNc/U+SpJSx/CdJyt+5bzSwvkGoTqrlvzJXGYVUJy28QIVtsQSo+o4XjqF19T0/C4CSlFWWACXlRTNPEBhvEJKkVTzDRkw0BkmSUsTynyQpb9r5IBEjDEJ1spSIH1v+k2LQwgs0sSPwkmGoTr7AxnxndZ+0AChJWWYJUFJeDOBYYLZBSJLeFTiRIXQahCRJKWH5T5KUT8OADxqD6qCTiP0ocq1RSDEZzrM0sRWuBKj6zZtHre5TFgAlKessAUrKx6RqNoFTDEKS1OVZZvoCtyRJqWH5T5KUX8ONQHXQScRPKXK1UUixP6tPo4ltgOcNQ3WwPR1s0d0nLABKUh5YApSUBxEXAU8bhCSJwEkWCCRJSs1czvKfJCmfOtga+KJBqMaWAntb/pMaaDjT6GQH4EXDUM1n0BWau/uEBUBJygtLgJKyrsQSAkcYhCTl3j+YyTXGIElSClj+kyTlWWCoIajGOoGfUmKSUUgNNoLnaOJbuBKgaj+P/jETaVr1wxYAJSlPLAFKyroy/0fErQYhSTkWcbIlAkmSUnHOtvwnScqvdgYCexqEaqiTwE8oeVGklBjDmQZuB6ya25g32GrVD1oAlKS8sQQoKfsO8TlOknLrOaZzlTFIkpRwlv8kSdoJ2MgYVCPV8l+ZXxmFlDAlXqRaAnzOMFQzBYa890OSpPyxBCgp289xjxOYYBCSlEMRp1gkkCQp8edry3+SJMFuRqAaWUJgiOU/KcFKvEiF7YEXDEM1sgeBaMUPWACUpLyyBCgpywLHAHMNQpJyZRobuvqfJEmJZvlPkqRldjQC1cASIn5ImRuNQkq4Fl4AtsaVAFUbmzKeL6z4AQuAkpRnlgAlZXciNYvAaQYhSblyMkNYbAySJCWU5T9Jkqra+AzwzwahfqqW/4r82iiklKhuB7wt8A/DUL8FdlrxPy0ASlLeWQKUlFUbcR7wrEFIUi68yGCuMAZJkhLK8p8kSSueF7c1BPXTYmCI5T8phUq8SBPbA88bhvpppfGEBUBJkiVASdk0hMUEjjIIScqFU1z9T5KkhLL8J0nSqufGrxuC+mEJ8ENK/K9RSCk1nGksZWtcCVD98x8r/ocFQElSlSVASVlU5npgqkFIUqa9xGAuNwZJkhLI8p8kSe8VLACqz6or/1n+k9JvJC+x1O2A1S8f4RI2X/YfFgAlSctZApSURRVGAxWDkKSMCpzq6n+SJCWQ5T9Jkt7rXNYDvmAQ6oPFRPzA8p+UISN5CdgOeM4w1CcV/m3ZPy0ASpJWZglQUta08FcCVxiEJGXSSyxmgjFIkpQwlv8kSere+/kM0GQQ6qXFBIZQZLJRSBlT4kWWsg3wrGGo1wKfXfZPC4CSpPeyBCgpa5o4EphnEJKUMRGnM4pFBiFJUqLOz9cT2MfynyRJ3ehkC0NQL1XLf2X+zyikjBrJSxTYFkuA6q3AZ5b90wKgJKl7lgAlZUkzrxI4yyAkKVNm8Lar/0mSlCjLyn8llhiGJEndKCx/o17qgUVE7GX5T8qBZl62BKg+zMG3WD7EkCRpdSwBSsqSdzgHmGYQkpQZp3IoC4xBkqSEsPwnSdLaBT5mCOqhxUQMochNRiHlRDMvs5StgCcMQz307rjCAqAkac0sAUrKikNZQOAog5CkTJjBfC41BkmSEsLynyRJPT1nftQQ1AOLifgBRSYbhZQzI5nJUrbDEqB65t1xhQVASdLaWQKUlBUlrgXuMQhJSr3TXf1PkqSEsPwnSVLPVSwAaq0WE/i+5T8px5aXAP9uGFqLdbmQD4AFQElST1kClJQFEQE4DAiGIUmpNZP5jDcGSZISMcey/CdJUu/OnR8wBK1BtfxXZopRSDk3kpkULAGqB5r4IFgAlCT1hiVASVlQ4k8ErjEISUqtM1z9T5KkBLD8J0lSX6xrBFoNy3+SVtbMq5YAtVZN1bGFBUBJUu9YApSUBYGfA/MNQpJS51WgwxiUeItcbTjVIiqGIK3178TynyRJfWMBUN2x/Cepe5YAtTaBdcACYLoPoSQ1SrUEuB/QaRjy/KRUauEVAucYhCSlbqRxJiXeMQgl3obOlVItstAkreVvxPKfJEl912QEWsVCIna3/CdptZp5lQHsCDxlGOrGQLAAmO6BgCQ1UpGridgHVwLUioLnJ6XIO5wOvGgQkpQar9Pp6n9KiXUtxaTaYue5AERe4KVuTWI6e1v+k9QwwfOTY4sMjDal5RYR8QOK/N4oJK3RAUynwNbA44ahlQyovj9vATDNgwFJajS3A9aqIs9PSpFDWUDgWIOQpNSMM85gJG8bhFJhCIvxjb30WsBbhgBgwUvvORdfD+xLq68DSWroc5FjrLSq+NpxFy+i1zKLgL0ocpNRSOqR6nbA22MJUCtaUh1jWQB0cChJ/VNkIoFhuB2wwBUAlT4lriTiAYOQpMR7nSW0GYNSZrYRpNI7HMoCY3B+p1W47a+k5PD8lFYFj10Xx5qqPg4Cu1HiZqOQ1CvNvMpSdgCeMAwB0FQdW1gATK/XjUBSYpS5yu2A5flJqRQRqDAa3IJEkhLuLFf/Uwq9YQQet1QLvjmtd7ntr6QksUSWVq4AuGyM5WvoWkDE7pS51Sgk9clIZlJhG+Axw3BkweDqa1kWANN7CF81BEmJ4nbAqo4sPD8pfcrcT2CSQUhSYr3BAMYZg1LoH0aQQhEvGsK78ztXsZTb/kpKnuD5KcXnFC+0qI6xfA0936rlvyK3GYWkfmlhFhW2xxJg3s1hCIurQwy82iKlg+TXDEFS4rgdsILnJ6VUJ4cB7xiEJCXS2RzAW8agFHrSCFI5p3nOEN7lm9N557a/kpLI8lSax1keO3PIu3cI7Gb5T1LNtDCLAjsAfzeM3Hp1+TAZr2pNqWlGICmR3A4434LnJ6XUSF4icIFBSFLivMEAxhiDUjo2tgCYTq7cuEzELEPI9fG3/CcpmSqenxxbpD6HFwwhl94hsDtlbjcKSTXVzKtU2BZXAszruOL5Zf8sAE+bSConOB43ScnldsD51eT5SSnWyanADIOQpEQ519X/lFrBsXEqRTxiCF2W8JIh5NYkprO35T9JiVRxYZPUanJs0cV5Qv5Y/pNUX8u3A37UMHJmhdcfLQCm1SCPm6SEswSYR50scLsspdhI3iZwrEFIUmLMZhEXG4NSPDp2BcA0ChYA3zWCOcBrBpEzEdcD+9Lq6zmSEupDPI+vOafRAl62ANg13vQ93nyx/CcpHi3MYqAlwBzO4Z9Z9s8C7gWdRnPY39VpJKVAkYkEhgGdhpELzzKKRcagVJvJBOBBg5CkBAicxyjmGYRS60DeAJ41iFSZRdGLmlYS+QZ1zo632/5KSr4hLAa3UE2hZ2mlYgxAkZeAuQaRC/OB71r+kxSb/XmNCjvgdsB58viyfxQI/Nk8UufPRARjkJQKZa4iYh+8KjMPHjACpV4rFSocZhCS1HBzWcfV/5QJvtGTLrf5mtsqKl48niNu+yspTTw/pU3gCUPoUh1v+v589r1Dgd0pcadRSIpVdSXA7XAlwDzoZMnyRU0KbMRjVNvnSs/A0IKFpHRxO+B88KICZWdy9AcCvzYISWrovPdchvGmQSgDLACm67nnVkN4TyZ/MYRcHGe3/ZWUNp6f0qbga8er8L3ebHuHArvRzB1GIakh9ue1ru2AHzGMTHuckby9fLg1hE4HyqnzJyOQlDpuB5x9Bf5oCMqM6iqAbmktSY0xl6VcZAzKhCXcAW51lqLjZWFzVV6InIdj7La/kjw/qf4qHrNVHsP3G0JmzSfi25b/JDVctQS4A5YAs2yl9+YLXf/vi1vpsZSFTDUGSankdsBZNocNecgYlBkjeI5g+USSGuR8RjDHGJQJB/IG8LBBpMITjOQlY1jFdB6D5VeTK3Pc9ldSOi3lAbzIIk2W0Olrxytp4i7w/JtB7wC7UeQuo5CUCPvzGp1sA8u3iVWGhJV3slhWALzFZFLjPkYxzxgkpZbbAWfVbV2rCkvZMZATgVcNQpJiNY9OLjAGZcwUI0iF3xhBN6pbwvoGZha57a+kNKteMGShLC0Cf1xxezoBB/AWwR11MmY+8F1K3GkUkhI3bupkR9wZNms6GbDyarPVAuBg/gK8YT6pYFlTUvq5HbDnJykNDuAt4ASDkKRYXeDqf8qcCpcDwSASrsAVhrAa0cpXlCsTx9RtfyVlga9HOpZIey6/M4TMeJsCu1r+k5RY1ddbd8VdKrLkAYYze8UPVAuAQ+gk4n/NJwUK3GgIkjLB7YCzZCkVJhuDMmkwHcCjBiFJsZhHE+cbgzKnhReAqQaRaH+mmUeMYTUCvzeETHHbX0nZEFkATBGPVfeP4esNIRPmU2E3mrnbKCQlWonXGcS2uBJgNoT3jiMKK3xyogkl3t9o5gljkJQZbgecFXfQwixjUCYNoZMCow1CkmJx0apXLUqZEXG5ISTaBCNYgxJPAn83iEw8F7ntr6Ts2JB7gFcNIvFeZgZ/NoZuFHkaV2JKu/lU+C4t/MEoJKXCMN5kkNsBZ0BgADes+sHlBcAZ3AG8Zk6JNskIJGVwkut2wJ6fpGRr5g4CNxmEJNXV2wzkAmNQZq3LJOAtg0ikhXRyrTE478s8t/2VlDVD6AR3zUrB+WcirVQMYrWuM4LUeosKO1v+k5Q6w3iTJnYG/moYqR1f3cdwpq364eUFwOpVf1eYVGJ1Alcag6RMcjvgNHubRa4irByocBj4Rpkk1U3gIvb3okRl2FDmA1cZRCJNYgRzjGEtCr45nfrHudv+Ssqiiq9LJl7kRQRrtJTL8TXHNJpPxG60cK9RSEql4cxmENuBq/Sm1CXdfbCwyn+PA4JZJdIUSrxoDJIyy+2A0+pqRjHPGJR5I3iKwFiDkKS6mM8gzjMG5cDpwGJjSJQKFc40hh5o5gkCfzSIFHLbX0lZVuYu4BmDSKwnGM6fjGENRjITmGwQqTKfiO9Q5C6jkJRq1e2Ad8ISYNq8Sej+IpiVC4Al/gHcYV4JFGg3BEmZ53bA6VPx/KRcPd5PAN4wCEmqsYiLXf1PuVC9sNNVAJPlWlp4zBh6qOD8L4XnWLf9lZT157lA4FKDSKw2IheeWavAOENIjXkEdrT8JykzhvEmnewMPGgYqRk3/JIS73T3qUI3g+VzTCxx/s5MbjEGSbngdsBpcjst/NUYlBsjmEPgBIOQpJqazwBfh1CunOpcJzE6KXCyMfTC21wHbpecIm77KykfBnEZsMggEucdOrnSGHqgzO3AXwwi8eZRYGfK3G8UkjJlBHMYxA5EPGAYibeEwPmr++R7C4BFfovtzqQ5hVYqxiApN6orAf4Y3xhLtsBphqDcmck44HGDkKSajSfGufqfcqW6+8a1BpEI19HME8bQC4eyAFyhJiVuwG1/JeXF/rxG5CrLCXQZI7xwoBdz4zMMIdHmUmBnmvmjUUjKpGG8SWAnS4CJHy9cTQsvrO7ThdV80+kmlxj/YEb3+zdLUqaVuc7tgBPtT11XJkr5Un0D7ecGIUk1sZCBnGcMyp0CxwELDKKhFtPJicbQB0s4F5hvEIl2A7jyn6ScqV6o7OvISRoxVFzpvVdmciN4cUpCzaXALpb/JGVeibkMZGdclTapOmnizDV9QWE1B/YGD2pCRBzjlZqScqvMVQT2xZUAk3l+kvI7CboZuMUgJKnfOjiA6cag3GnmeQKnGkRD5zNnMoKnDKIPDuQN4FKDSKxJzOBHlv8k5U51leVJBpEY16xpdRp1o7oT3NEGkThzwZX/JOXIMN4EdgD+ZBgJE3H52nayKKzmGwMRh5lgw/2ZZq4zBkm5Vl0J0O2Ak+VmitxmDMq1AqN9XpKkfllEZc1XLEqZthFnAk8aREM8y9sWMPulwinAPINIHLf9lZRvEceDBegEWAycZAx9UOJ/gTsNIjGq5b+SJRhJuTsfVZ//LAEmyQKWcMLavqiw2s8UuQuYYo4NE4g4nIhgFJJyz+2Ak2QpkdufSl1X2VxmEJLUZ5fRwivGoNwawmIiyuDrPrELjOBQt2DulxZmEbmtX8K47a8kFXmawHiDaLiLulZkVF9UOBKoGETDvUmFnSz/ScqtEnMZxC5EPGAYCRA4i5G8tLYvK6zxs00cBLxtmg1xRVcJU5IEbgecHOdS5HFjkIAKx+LKJ5LUF0tc/U+ievFt4BqDiFHgasrcahA1sC7ngNu4J0LE9W77K0nvnutPwNdqGmk2Ta603C8tPECgzSAaai6wCy2WXiTl3DDeJLATwW3QG+wZ1uG0nnzhmguAw5lGtPZlBFVzbzCQw41BklbhdsCNNo31ONEYpC4tzALOMAhJ6qWIK2jhBYOQgHU4EHjeIGLxEhGjjaFGhjKfiEMMouFuILCP2/5KUpcWZhE4xiAa5ucMZ7Yx9NNijgJeNoiGmOvKf5K0ghJzidjFEmDDBAItDGNhT764sNavmM75wJ/NNVaj2J/XjEGSuuF2wI0cYDQzlPlGIa1gEOcC0wxCknqsk4rlaeldw3iTiB8Ciw2jrpZQYW9KvG4UNVRkIjDZIBrGbX8lqTszGQPcZxCxm0qRS42hBkYxj4iRBhG7OQR2cOU/SVqFJcDGCVxCmdt7+uVrLwBWrx7cG3jLdGMxiZLbv0jSGrkdcPwiznOrLKkbw1hIxC8MQpJ67BrKPGMM0gqK/Bk42iDq6ue0cK8x1MVBVLdJU7xzdLf9laTVaaUClIFFhhGbBXRSJCIYRc3mCJOJ3Ao4Rm9SYRfK/MUoJKkbJeayPjsAUw0jNs8ykJ/15hsKPTyY/3CLjFi8RCclY5CkHnA74Dg9xkALTtJqNXMNXlkuST3RCZxqDFI3ipxLxP8ZRF1Mocj5xlAnJV4Emg0iVm77K0lrPz89SvACixj9jBE8ZQw1NpBDgEcNou7eJGInV/6TpLUYynzW49vAXYZRd0uosC8H9G6hvkKPv7LIZURcYc51s5CIvRjBHKOQpB5yO+C4Jr97MYyFRiGtRkQgcBh4lbMkrcUkSjxpDNJqxhNLGQY8bhg19STwE1ejqbMSk4CrDCIWbvsrST0/P50H3GwQdfdbiq5UVxfV1+SH4GrL9VQt/1VXZZckrU21BPgdLAHW28F9KaYXevXVAykBfzLrOogY6eBCkvrA7YDrqQL8mCJPG4W01uei+4EbDUKSVivg6n/Smo1gDhV2Bl40jJp4hSZ2oeQbprFYxEjgCYOoI7f9laTePm8GChwAvGwYdfMCMNSLLeqoxJNEDKX6Wr1qy/KfJPXFshJgxB8Mow4Cl1NiXF++tXcFwGEspMJewHRTr6lzKHKZMUhSH7kSYL0cScmrZKUe6+QIYJFBSFK3fk3JrYuktWrhFQK7gjtE9NNcCnyb4UwzipiMYh4FvgO8YRh14ba/ktQXzbxKhd2Bdwyj5hZQ4PuUeN0o6qzIZOBYg6ip2VTYzvKfJPXRUObTxO5E3GsYNTWVjSj19ZsLvf6OFl7puhp5ttnXxLXM4AhjkKR+ciXA2gqMpcRZBiH1wgieAy42CEnqdmxxmiFIPZ7b/J3AnsBCw+iTBcB3aeYRo4hZM88T+DFenFdbrvwnSf3Twl8JlMBV6mo6w4Of0syDRhGTEqcC5xtETbxJYGda+KtRSFI/HMBbrMvOrgRYM4/RyZ4MYXFff0ChT9/VwmNdV3TO9xj0y+0sYj9aXbZZkmqiuhLgj7EE2D8Rv2ImBxmE1AeDOBm88lmSVhK4iTJ/MQipV3ObqQT2olpmU88tJGIvStxjFA177P6OiGFYsqgVV/6TpNqcn64i4hcGUTOHU2KSMcRsBj8DrjOIfplDYEdfo5CkGhnKfNblu5YA++15YCdG9G9HkEKfv7OZPxL5QmQ/3Ml67MEot4mTpJoqcx3wUywB9tWNBH5qOV3qo2G8CZxkEJK0goKr/0l9nNv8hsAuwDzD6JG3CexOkd8aRYMVuRI42iD67QZgb1f+k6SanZ9OA84xiH4KnEbJHBuilQqDGdo1RlDvvUqBbSz/SVKNDWU+S9gNuNMw+uR5KmxHiRn9/UGFfn13kd93vRD5lsekV4Pj3zOf7zDUFRQlqS5KXEPge2DJupfnp4ngtkJSv81gLPB3g5CkrvlvkfsMQuqjMlMpsB3wmmGs0UwqfIsytxpFYublpwOnGkQfue2vJNVHkcMJjDeIPruYkispNtQQFjOYHxJxhWH0er6wA808YhSSVAcjeZtF7ApMMYxeeZ4C29PCC7X4YYV+/4QyU4FvA7M9Nj0Q+DWL2YNDXTlRkuqqzBQivo/b1fdMxKVsxD6+uSDVQCtLiTjKICQJaOIUQ5D6qZkHCWwDvGwY3XqWTv6bFv5qFAlT4hcEjjSIXruW6ezttr+SVAcRgRIlAhcYRq+dQ5FRRASjaLAhdLIh+wPthtHD+UITW9HCY0YhSXU0ikUs4gdEXG8YPfIw8N8083zthrq1cgn/Qic3A1t4nFbrQmZwiNsqSlKM2vgKETcBHzeMbgXgREq0GoVUY+3cCuxgEJJy7E5KbGcMUo2MYWMGcB3wLcN4110U+CHNvGoUCdbBYQTOpJavRWdVRBvTGenrx5JUZ4GIDk4HjjCMHjmJEscZQyLHWQcTOJdaLPqTzb/1PxLYgxZmGYYkxTrOOh443jBW6xYW8QNGMa+WP7S2L7pcxodZzA1EbOXxWskS4GBKjDMKSWqAdjYDJgNfMYyVvENgf8pcZxRSHVQLyA/hC3CS8ms7StxpDFINtTKATTmZwBHku0wVgIuAw1zFPCU62IvAlcB6hrHax7QX50lS3NoZDowFBhpGt5YSOIgybUaR+HHWBOD9hrGSKxlEkWEsNApJatg462JgHcNYyfkM5jCG0FnrH1z7FwpbGcAmHAMci292ArxMxA8pcp9RSFIDTWBdFnMGMMowAHiaAj+gmUeMQqqjNiYQsZ9BSMqh+ynxX8Yg1Uk7ewK/BD6Qw3s/t+tCpht9IKRMB/9F4Ebgo4axkvkE9qPsNkmS1KDz064EfgV80DBWMrvr/c3bjCIVj+MtCEwCtjQMFhHxc4pu9S1JDTeO/0eBScCnDYO3CDTXc2Ge+l0p3MYeRFwCfCi3hy9wExHDKPG6j2VJSsxEeD8CF5Lnq+ECVzOQFg7gLR8QUp1dyqYs5WlgA8OQlCsRu1Dk9wYh1VE7nwMuhRyVbSPupcC+DGeaD4CUGsdHKHANsL1hAPAU8ANKPGoUktRAl7A5FSYS+LphAPAQnfyAETxnFKmaH6wPXAAcQH5XC38C+DElHvIBIUkJMZbBDKCDwPdznMJfiNiXIk/X85fU9+RffUFnHPC9nB28ecDhFBlPRPAvWpIS5hI2p5NLyd8bDrOIGEGRG3wQSDFqpxU43iAk5ciDFPl358NSDAIRHTQDZ5Pti5zeJKKV6VxEKxUPfMot38r6cPK8g0zgajopM5K3fVBIUgJUd5C5ACjmenQJY1jEYYxikQ+KlOpgZwLjgU/k7LE7HjiEEu/4IJCkBGrnB8BY8rWI3BIizmVDjmMIi+v9y+Jp/3ewL4GzgY1zcAAns5QDGclL/gVLUqKngxEdlIFTgME5mPxezUAOZX9e8+BLMTuX9diAp8jXi26S8ixiN4rcZBBSjC5lUzoZS2CPDM5mbiJQpoVXPNAZ08Y3iJgAfDZn9/w1Ilq8OE+SEqpanroE+HjO7vkMIorO5TJiAhuyhNMINANNGb+3DxMYQZn7PfCSlHBj2JgmziZiH7K/Wu09FBhJM4/E9QvjC/QKNmABhwNHAutk8OA9C4ymxM3+1UpSilzCRnRyPDAyoxPhh4GDKHGPB1tqoDaGEXGZQUjKgYcp8q+u/ic1SDt7AicDX8zAvXkEOJwSt3hgM6z6mvHJwIHAgIzf20DEtXQymhZmefAlKcHGMpgmzgb2I/ur1Vaorpz2c0rM9eBnTAdfJXAR8M0M3rs5RJzAhlzMEDo92JKUqvPTvwMXE/h6Bu/dDAJHUuLKuF8jjxpwILcgcDzwo4wMmqcTcQobckkcSzZKkuqkja8QcSKwe0bu0XMETmAjrnbyKyVAKwU24QHga4YhKdMCe1HmRoOQGj7u2IvqauefSeE9eJzAmc5lcmYsn6XABUTsnNF7+CRwsIVWSUqZ8XyNChcB38joPfwLBQ6imT96sDOugx0InAH8awbuzdtEjGEpZzCCOR5cSUqp5a9fnQxskYF7NBu4iEWcyyjmNeIGNG5JxQ6+SIXjiPge6by682XgXObTxqEs8K9TkjJiHF8n4lgivk06i+rPEnEmgcspscQDKiXq+WUbCtxpEJIy7O/M4Mu0UjEKKQHaGQjsDxxKOl5IfZTAiczkRp9Hcv243RM4EfhyRu7Ri8BJzOByWlnqAZakFGqlwMbsQ8TxwL9k5F49RUQrzVzn6u05eyxvyvcJHEE6L1KeTaCdiHMp8boHVJIyc34awMb8hIjDgC+k8B7MBC5mERc1qvi3TOP3VL6EzVnKgUQMBzZM/KGLeAA4j8ANFiskKcOqK9aOBoYCG6TgFt9J4AJmMsU3y6QEa2cysJtBSMqkiL0pcq1BSAlUXb2mCPwEWC9Bt2whMIWIDpq53TegBSx7c3oIgV8AX0rpvXgROJPBjHfXGEnKzPlpABvzUyKOAj6d0nvxNHAqg7nKlZZzPz/Yigqjqe6IlPSFep4ALmI9rmAo8z14kpRRgYjx7NT1/vxOJH+hnoeAC1nEtYxiURJuUJSYaCawLovZjcBQInZJ2GBjNnA90E6Jh/zLk6QcOZf12IDvAkVg+0SdO+EV4AYKXEozj3iwpBQYy2dp4lFgoGFIyphnGMznfRNJSrjxfJQKw4AhwFcbOL+5n4gJLOS6Rl8drYRr55vAKOB7QFMKbvGDBC4k4ldePC5JGVUtqm9HhYOJ+A7Jer24exH3EriAwdzonE3dzA/2AX4KfCVBt2wOcC0FrnCLaknKoTF8ggH8hOpCPZ9N0C17FbiGwC8p87fkDfmSeTA3ZiC7UWF3IranMVcmP0dgCk1M5hWmukWDJIl2NgN2J2J3AlsDgxpwK54AplBhMq9yv6v9SSnUwYUEDjIISZkSMZQiVxqElCKX8WEWsysR36V6ZfUH6/jbZgF3AbexlN8ykpc8AOqVMXyCJvbp2kUmadsvVi8eL9BBMw96sCQpR9r5HPAjquWpTybs1nnxuHqnjc8QsTvVVQH/i/gX63me6urgUwjc5cUUkiQAxvElCu+en/6d+FcGfAqYTIEpfJD7knwxRfKvSqmuvPSfwLeArYCvUfutgivAP4i4nwpTgamUeca/JEnSao3hfQzkvwlsReBbRHwVeH+Nf0tn16DiPiKmUmAqw5lm+FLKjWUwTTwLbGQYkjLiOWbwWS+ck1JsIoOYy79SYUtgSwJbEvFl+vYa3Ftd85iHgb91zWMedXtf1UR1S6BvENgD2A34fINuyYvAFGAyM7jDc6Ak5X4s1cRctqaT3YnYDfjnBt2SZ4mYDExmOnd78bj6bAzvYwD/RcRWVPgvIrYEPlTD37AYeJyIh6gwlcBUWnjB4CVJazSBDVnCNwlsBfwnsCW17Y8tAB4H/kzg7q7z0ytpiSdK5UFtZzMitqTCFkRsTsTmwCYE/onq1cofYOVVmd4C5nb97w1gGhHTqPACEY+xHo8xlPn+tUiS+iwQMY5P0cSWwGeAzQh8koiNqZZ8Ptj1vxWvmpu7wv9ep/oGwgvA8xR4jAE8zjAWGq6UQWPYmIj1DUJSJjQxjxKvG4SUQeP4GAU+TsRHCXwEWJfABu9+PmIRgdlEvEHELALP+3ygWI3lnymwNfAtIr5J/VYHfAW4B7ibCnfRwmOGL0larerKgFsT2IqIrYDN6vSbXgDuJuJu4C6KPG34qptL2ZQlfJGIT3U9pjejWgpc9t7Hijv6dQLzqG7lO4fAdCKmEfEi8CTTecoLKCRJNRp3bUbgC++enwKfIHq3O/ZBYN0VvnopK783P4OIaQSm0ckTfIhnk7zC39pEPhokSZIkSZIkSal3IR9gIF8m4ssUui7Oq74BsAnLLxzvznyqbwDMevfF/4jniHiURfyNA3nDcCVJfTaWwQxgSwJfJvAvwGZdi5t8tOv89L7VfOeyBU5mUr14/EUinqHCY6zDIwzjTcOVJEkSWACUJEmSJEmSJOVBdfX+DVf62CzecgUaSVJDTaSJ11cpqc9irlv4SpIkqaf+P2pCL1Xe1PN+AAAAJXRFWHRkYXRlOmNyZWF0ZQAyMDI0LTA3LTE2VDA5OjE2OjM0KzAwOjAw//FagQAAACV0RVh0ZGF0ZTptb2RpZnkAMjAyNC0wNy0xNlQwOToxNjozNCswMDowMI6s4j0AAAAASUVORK5CYII=;" vertex="1" parent="1">
          <mxGeometry x="682.25" y="820.2" width="89.48" height="18.8" as="geometry" />
        </mxCell>
        <mxCell id="OMT6kCB8-b_YwNMrbF4f-29" value="" style="image;aspect=fixed;html=1;points=[];align=center;fontSize=12;image=img/lib/azure2/general/Browser.svg;" vertex="1" parent="1">
          <mxGeometry x="623.99" y="880" width="50" height="40" as="geometry" />
        </mxCell>
        <mxCell id="OMT6kCB8-b_YwNMrbF4f-30" value="" style="image;aspect=fixed;html=1;points=[];align=center;fontSize=12;image=img/lib/azure2/general/Browser.svg;" vertex="1" parent="1">
          <mxGeometry x="757.48" y="880" width="50" height="40" as="geometry" />
        </mxCell>
        <mxCell id="OMT6kCB8-b_YwNMrbF4f-31" value="" style="shape=cylinder3;whiteSpace=wrap;html=1;boundedLbl=1;backgroundOutline=1;size=15;fillColor=#1ba1e2;fontColor=#ffffff;strokeColor=#006EAF;" vertex="1" parent="1">
          <mxGeometry x="634.99" y="957" width="34.98" height="50" as="geometry" />
        </mxCell>
        <mxCell id="OMT6kCB8-b_YwNMrbF4f-32" value="flask-app-no-db:5000" style="text;html=1;align=center;verticalAlign=middle;whiteSpace=wrap;rounded=0;" vertex="1" parent="1">
          <mxGeometry x="717.48" y="850" width="130" height="30" as="geometry" />
        </mxCell>
        <mxCell id="OMT6kCB8-b_YwNMrbF4f-33" value="flask-app-with-db:5000" style="text;html=1;align=center;verticalAlign=middle;whiteSpace=wrap;rounded=0;" vertex="1" parent="1">
          <mxGeometry x="587.48" y="850" width="130" height="30" as="geometry" />
        </mxCell>
        <mxCell id="OMT6kCB8-b_YwNMrbF4f-35" value="mongodb:8000" style="text;html=1;align=center;verticalAlign=middle;whiteSpace=wrap;rounded=0;" vertex="1" parent="1">
          <mxGeometry x="587.48" y="920" width="130" height="30" as="geometry" />
        </mxCell>
        <mxCell id="OMT6kCB8-b_YwNMrbF4f-36" value="" style="shape=mxgraph.cisco.computers_and_peripherals.pc;html=1;pointerEvents=1;dashed=0;fillColor=#036897;strokeColor=#ffffff;strokeWidth=2;verticalLabelPosition=bottom;verticalAlign=top;align=center;outlineConnect=0;" vertex="1" parent="1">
          <mxGeometry x="150.53" y="840.5" width="70" height="50" as="geometry" />
        </mxCell>
      </root>
    </mxGraphModel>
  </diagram>
</mxfile>
